<svg width="36" height="30" viewBox="0 0 36 30" fill="none" xmlns="http://www.w3.org/2000/svg">
<rect width="36" height="30" rx="6" fill="#F1F1F2"/>
<g clip-path="url(#clip0_1488_8451)">
<path d="M20.74 22.1667H15.26C14.0953 22.1756 12.9746 21.7223 12.1436 20.9063C11.3126 20.0902 10.839 18.978 10.8267 17.8134V12.7067C10.8301 12.1283 10.9476 11.5563 11.1724 11.0233C11.3972 10.4904 11.7248 10.007 12.1366 9.60083C12.5483 9.19464 13.0362 8.87362 13.5721 8.65613C14.108 8.43865 14.6816 8.32896 15.26 8.33335H17.62C17.6857 8.33335 17.7507 8.34629 17.8113 8.37141C17.872 8.39654 17.9271 8.43337 17.9735 8.4798C18.02 8.52623 18.0568 8.58135 18.0819 8.64201C18.1071 8.70268 18.12 8.76769 18.12 8.83335C18.12 8.89902 18.1071 8.96403 18.0819 9.0247C18.0568 9.08536 18.02 9.14048 17.9735 9.18691C17.9271 9.23334 17.872 9.27017 17.8113 9.29529C17.7507 9.32042 17.6857 9.33335 17.62 9.33335H15.26C14.3669 9.32795 13.5076 9.67488 12.8686 10.2989C12.2296 10.9229 11.8624 11.7737 11.8467 12.6667V17.7734C11.8624 18.6664 12.2296 19.5171 12.8686 20.1411C13.5076 20.7652 14.3669 21.1121 15.26 21.1067H20.74C21.6331 21.1121 22.4924 20.7652 23.1314 20.1411C23.7703 19.5171 24.1376 18.6664 24.1533 17.7734V14.4267C24.1677 14.3015 24.2276 14.1859 24.3216 14.102C24.4157 14.0181 24.5373 13.9718 24.6633 13.9718C24.7894 13.9718 24.911 14.0181 25.005 14.102C25.0991 14.1859 25.159 14.3015 25.1733 14.4267V17.8134C25.161 18.978 24.6874 20.0902 23.8564 20.9063C23.0254 21.7223 21.9047 22.1756 20.74 22.1667ZM21.7867 8.83335C21.6897 8.8315 21.5936 8.85293 21.5066 8.89585C21.4196 8.93877 21.3442 9.00192 21.2867 9.08002L20.8933 9.58669C21.0259 10.1255 21.3477 10.5987 21.8 10.92C22.2185 11.2369 22.7283 11.41 23.2533 11.4134H23.3333L23.7267 10.9067C23.7757 10.8429 23.8116 10.7699 23.8322 10.6921C23.8528 10.6143 23.8577 10.5331 23.8467 10.4534C23.8369 10.3736 23.8105 10.2968 23.7692 10.2278C23.7278 10.1589 23.6725 10.0995 23.6067 10.0534L22.16 8.96002C22.0531 8.87741 21.9217 8.83284 21.7867 8.83335ZM21.7867 7.83335C22.1421 7.83335 22.4881 7.9479 22.7733 8.16002L24.2333 9.24002C24.405 9.36565 24.5498 9.52438 24.6592 9.70686C24.7685 9.88935 24.8402 10.0919 24.8701 10.3025C24.8999 10.5132 24.8872 10.7276 24.8328 10.9333C24.7784 11.139 24.6834 11.3317 24.5533 11.5L24.1133 12.0734C24.0487 12.1588 23.9676 12.2306 23.8749 12.2844C23.7822 12.3382 23.6796 12.373 23.5733 12.3867H23.2533C22.509 12.3902 21.7828 12.1567 21.18 11.72C20.4908 11.2239 20.0146 10.4857 19.8467 9.65335C19.8308 9.54772 19.8369 9.43996 19.8644 9.33675C19.8919 9.23354 19.9403 9.13708 20.0067 9.05335L20.4467 8.48002C20.6019 8.27303 20.8032 8.10502 21.0346 7.98931C21.2661 7.8736 21.5213 7.81335 21.78 7.81335L21.7867 7.83335ZM18.7467 12.3667L17.2533 14.3334C17.1879 14.415 17.1505 14.5155 17.1467 14.62V16.7267C17.1435 16.7526 17.1466 16.7789 17.1559 16.8033C17.1652 16.8277 17.1804 16.8495 17.2 16.8667C17.2407 16.9076 17.2956 16.9315 17.3533 16.9334H17.4133L19.4533 16.3334C19.554 16.3002 19.6422 16.2375 19.7067 16.1534L21.2 14.22C20.7255 14.029 20.2775 13.7781 19.8667 13.4734C19.454 13.166 19.084 12.8051 18.7667 12.4M18.8 10.96C18.8757 10.9582 18.9503 10.978 19.0152 11.0169C19.0801 11.0559 19.1326 11.1124 19.1667 11.18C19.5012 11.766 19.9555 12.2748 20.5 12.6734C21.0418 13.078 21.6651 13.3601 22.3267 13.5C22.3983 13.5111 22.4657 13.5411 22.5219 13.5869C22.578 13.6328 22.6209 13.6928 22.646 13.7608C22.6712 13.8288 22.6777 13.9023 22.6649 13.9737C22.6522 14.045 22.6205 14.1117 22.5733 14.1667L20.5733 16.78C20.3776 17.0358 20.1037 17.2207 19.7933 17.3067L17.7333 17.9067C17.6208 17.9406 17.5041 17.9586 17.3867 17.96C17.2254 17.9627 17.0652 17.933 16.9156 17.8728C16.766 17.8125 16.63 17.7228 16.5157 17.6091C16.4013 17.4953 16.3109 17.3598 16.2498 17.2106C16.1887 17.0613 16.1582 16.9013 16.16 16.74V14.6334C16.1652 14.3136 16.2753 14.0045 16.4733 13.7534L18.4733 11.14C18.5136 11.0904 18.5644 11.0503 18.6221 11.0227C18.6797 10.995 18.7427 10.9805 18.8067 10.98L18.8 10.96Z" fill="#5E6278"/>
</g>
<defs>
<clipPath id="clip0_1488_8451">
<rect width="16" height="16" fill="white" transform="translate(10 7)"/>
</clipPath>
</defs>
</svg>
