<svg width="20" height="20" viewBox="0 0 20 20" fill="none" xmlns="http://www.w3.org/2000/svg">
<g id="plus-squared">
<g id="arrows">
<g id="minus-squared">
<path id="Vector" opacity="0.3" d="M9.16667 10.8333H5.83333C5.61232 10.8333 5.40036 10.7455 5.24408 10.5892C5.0878 10.4329 5 10.221 5 9.99996C5 9.77895 5.0878 9.56698 5.24408 9.4107C5.40036 9.25442 5.61232 9.16663 5.83333 9.16663H9.16667V10.8333ZM14.1667 9.16663H10.8333V10.8333H14.1667C14.3877 10.8333 14.5996 10.7455 14.7559 10.5892C14.9122 10.4329 15 10.221 15 9.99996C15 9.77895 14.9122 9.56698 14.7559 9.4107C14.5996 9.25442 14.3877 9.16663 14.1667 9.16663Z" fill="white"/>
<path id="Vector_2" opacity="0.3" d="M13.4917 1.66663H6.50841C3.83444 1.66663 1.66675 3.83431 1.66675 6.50829V13.4916C1.66675 16.1656 3.83444 18.3333 6.50841 18.3333H13.4917C16.1657 18.3333 18.3334 16.1656 18.3334 13.4916V6.50829C18.3334 3.83431 16.1657 1.66663 13.4917 1.66663Z" fill="white"/>
<path id="Vector_3" d="M14.1667 9.16667H10.8333V5.83333C10.8333 5.61232 10.7455 5.40036 10.5893 5.24408C10.433 5.0878 10.221 5 10 5C9.77899 5 9.56702 5.0878 9.41074 5.24408C9.25446 5.40036 9.16667 5.61232 9.16667 5.83333V9.16667H5.83333C5.61232 9.16667 5.40036 9.25446 5.24408 9.41074C5.0878 9.56702 5 9.77899 5 10C5 10.221 5.0878 10.433 5.24408 10.5893C5.40036 10.7455 5.61232 10.8333 5.83333 10.8333H9.16667V14.1667C9.16667 14.3877 9.25446 14.5996 9.41074 14.7559C9.56702 14.9122 9.77899 15 10 15C10.221 15 10.433 14.9122 10.5893 14.7559C10.7455 14.5996 10.8333 14.3877 10.8333 14.1667V10.8333H14.1667C14.3877 10.8333 14.5996 10.7455 14.7559 10.5893C14.9122 10.433 15 10.221 15 10C15 9.77899 14.9122 9.56702 14.7559 9.41074C14.5996 9.25446 14.3877 9.16667 14.1667 9.16667Z" fill="white"/>
</g>
</g>
</g>
</svg>
