<svg width="16" height="16" viewBox="0 0 16 16" fill="none" xmlns="http://www.w3.org/2000/svg">
<g id="trush">
<g id="general">
<path id="trush_2" d="M5.52007 15.1667C4.96436 15.1615 4.43097 14.9474 4.02585 14.567C3.62073 14.1866 3.37355 13.6677 3.3334 13.1134L2.84673 6.15339C2.84236 6.08773 2.85095 6.02185 2.87204 5.95951C2.89312 5.89718 2.92628 5.8396 2.96961 5.79008C3.01294 5.74055 3.06561 5.70005 3.1246 5.67088C3.18358 5.64171 3.24774 5.62444 3.3134 5.62006C3.37906 5.61568 3.44494 5.62428 3.50728 5.64536C3.56962 5.66645 3.62719 5.6996 3.67672 5.74294C3.72624 5.78627 3.76674 5.83893 3.79592 5.89792C3.82509 5.95691 3.84236 6.02107 3.84673 6.08673L4.32007 13.0467C4.3437 13.3532 4.4828 13.6393 4.70926 13.8472C4.93573 14.0551 5.23266 14.1693 5.54007 14.1667L10.5734 14.1067C10.8792 14.1037 11.1724 13.984 11.3929 13.7722C11.6135 13.5603 11.7448 13.2722 11.7601 12.9667L12.1534 6.08673C12.1636 5.9541 12.225 5.83064 12.3245 5.74234C12.424 5.65405 12.5538 5.60782 12.6867 5.61339C12.8182 5.62198 12.941 5.68212 13.0284 5.78074C13.1158 5.87936 13.1607 6.00849 13.1534 6.14006L12.7601 13.0267C12.7265 13.5835 12.484 14.1071 12.0811 14.4927C11.6781 14.8784 11.1444 15.0977 10.5867 15.1067L5.5534 15.1667H5.52007ZM9.98673 8.56673C9.98501 8.43466 9.93177 8.30848 9.83838 8.21508C9.74498 8.12169 9.6188 8.06845 9.48673 8.06673H6.5134C6.38079 8.06673 6.25361 8.1194 6.15985 8.21317C6.06608 8.30694 6.0134 8.43412 6.0134 8.56673C6.0134 8.69934 6.06608 8.82651 6.15985 8.92028C6.25361 9.01405 6.38079 9.06673 6.5134 9.06673H9.48673C9.55351 9.06851 9.61996 9.05689 9.68217 9.03256C9.74438 9.00823 9.80109 8.97169 9.84894 8.92508C9.89679 8.87847 9.93481 8.82275 9.96077 8.7612C9.98673 8.69965 10.0001 8.63352 10.0001 8.56673H9.98673ZM9.46673 11.0334C9.46673 10.9008 9.41405 10.7736 9.32029 10.6798C9.22652 10.5861 9.09934 10.5334 8.96673 10.5334H7.0334C6.90079 10.5334 6.77361 10.5861 6.67985 10.6798C6.58608 10.7736 6.5334 10.9008 6.5334 11.0334C6.5334 11.166 6.58608 11.2932 6.67985 11.3869C6.77361 11.4807 6.90079 11.5334 7.0334 11.5334H8.96673C9.0988 11.5317 9.22498 11.4784 9.31838 11.385C9.41177 11.2916 9.46501 11.1655 9.46673 11.0334ZM14.0001 4.34673C13.9838 4.4657 13.9248 4.57467 13.834 4.65322C13.7431 4.73177 13.6268 4.77449 13.5067 4.77339H13.4334C9.83476 4.27883 6.18538 4.27883 2.58673 4.77339C2.52058 4.78482 2.45282 4.78299 2.38738 4.768C2.32195 4.75301 2.26014 4.72517 2.20556 4.6861C2.15097 4.64702 2.1047 4.59748 2.06942 4.54037C2.03414 4.48325 2.01057 4.4197 2.00007 4.35339C1.97891 4.22256 2.01056 4.08868 2.08807 3.98118C2.16557 3.87367 2.28259 3.80133 2.4134 3.78006C2.50007 3.78006 3.42007 3.62006 4.86673 3.50673L5.10673 2.25339C5.1829 1.8533 5.39649 1.4924 5.71057 1.23311C6.02464 0.973814 6.41945 0.832426 6.82673 0.833394H9.18007C9.59039 0.831437 9.98831 0.974003 10.304 1.23609C10.6198 1.49818 10.8331 1.86305 10.9067 2.26673L11.1334 3.50673C11.9267 3.57339 12.7401 3.65339 13.5734 3.78006C13.6387 3.78906 13.7016 3.81088 13.7584 3.84427C13.8153 3.87766 13.865 3.92197 13.9046 3.97463C13.9443 4.0273 13.9731 4.08729 13.9895 4.15115C14.0059 4.21501 14.0095 4.28148 14.0001 4.34673ZM7.70673 3.39339H10.0934L9.92007 2.44673C9.88887 2.27486 9.79842 2.11937 9.66443 2.00731C9.53044 1.89525 9.3614 1.83371 9.18673 1.83339H6.8334C6.65887 1.83314 6.48967 1.8935 6.35471 2.00415C6.21974 2.1148 6.12738 2.26887 6.0934 2.44006L5.9134 3.39339H7.70673Z" fill="white"/>
</g>
</g>
</svg>
