<svg width="20" height="20" viewBox="0 0 20 20" fill="none" xmlns="http://www.w3.org/2000/svg">
<g id="document">
<g id="files-folders">
<g id="document_2">
<path id="Vector" d="M13.3333 13.7583C13.3449 13.9127 13.2956 14.0654 13.1959 14.1838C13.0962 14.3022 12.9541 14.3768 12.8 14.3917H6.56665C6.41631 14.3672 6.27958 14.2901 6.18091 14.174C6.08224 14.058 6.02806 13.9106 6.02806 13.7583C6.02806 13.606 6.08224 13.4587 6.18091 13.3426C6.27958 13.2266 6.41631 13.1495 6.56665 13.125H12.7916C12.9472 13.1378 13.0914 13.2115 13.1929 13.3301C13.2944 13.4487 13.3448 13.6027 13.3333 13.7583ZM6.74998 10.9833H9.38331C9.54984 10.9811 9.70879 10.9135 9.82577 10.7949C9.94275 10.6764 10.0083 10.5165 10.0083 10.35C10.0084 10.1827 9.94306 10.0219 9.8263 9.90207C9.70955 9.7822 9.55059 9.71268 9.38331 9.70833H6.74165C6.65847 9.70942 6.57633 9.72688 6.49991 9.75972C6.42348 9.79255 6.35427 9.84012 6.29624 9.89971C6.2382 9.9593 6.19247 10.0297 6.16165 10.107C6.13084 10.1843 6.11554 10.2668 6.11665 10.35C6.11554 10.4328 6.13089 10.5149 6.16181 10.5917C6.19272 10.6685 6.23858 10.7384 6.29673 10.7973C6.35488 10.8563 6.42415 10.903 6.50053 10.935C6.5769 10.9669 6.65886 10.9833 6.74165 10.9833H6.74998ZM18.9666 8.725C18.9714 8.68347 18.9714 8.64153 18.9666 8.6C18.994 8.49481 18.9937 8.38436 18.966 8.27928C18.9383 8.1742 18.884 8.07802 18.8083 8L12.1416 1.225C12.0892 1.17394 12.0268 1.13423 11.9583 1.10833H11.9083C11.8502 1.10044 11.7914 1.10044 11.7333 1.10833H6.32498C4.9183 1.12143 3.57319 1.68719 2.58003 2.68346C1.58687 3.67974 1.02534 5.02662 1.01665 6.43333V13.5667C1.00776 14.9849 1.56153 16.3489 2.55657 17.3595C3.55161 18.3702 4.90675 18.9451 6.32498 18.9583H13.675C15.0932 18.9451 16.4484 18.3702 17.4434 17.3595C18.4384 16.3489 18.9922 14.9849 18.9833 13.5667L18.9666 8.725ZM12.3 3.20833L16.8333 7.81667H14.4C13.8371 7.81007 13.2996 7.58126 12.9047 7.1801C12.5098 6.77893 12.2894 6.23793 12.2916 5.675L12.3 3.20833ZM13.6833 17.6917H6.32498C5.78765 17.6873 5.25644 17.5772 4.76168 17.3675C4.26693 17.1578 3.81831 16.8528 3.44146 16.4697C3.0646 16.0867 2.76689 15.6331 2.56531 15.135C2.36374 14.6369 2.26225 14.104 2.26665 13.5667V6.43333C2.26225 5.896 2.36374 5.36307 2.56531 4.86496C2.76689 4.36686 3.0646 3.91333 3.44146 3.53029C3.81831 3.14724 4.26693 2.84218 4.76168 2.63251C5.25644 2.42285 5.78765 2.31269 6.32498 2.30833H11.0416V5.64167C11.0371 6.53406 11.3845 7.39227 12.0085 8.03028C12.6324 8.66828 13.4827 9.03466 14.375 9.05H17.7083V13.5333C17.7171 14.0714 17.6197 14.6059 17.4217 15.1062C17.2237 15.6065 16.9289 16.0629 16.5542 16.4492C16.1796 16.8354 15.7324 17.144 15.2384 17.3572C14.7443 17.5704 14.213 17.6841 13.675 17.6917H13.6833Z" />
</g>
</g>
</g>
</svg>
