<svg width="20" height="20" viewBox="0 0 20 20" fill="none" xmlns="http://www.w3.org/2000/svg">
<g id="exit-right">
<g id="arrows">
<path id="exit-right_2" d="M9.44164 18.9584H5.74164C4.68263 18.9898 3.65424 18.6008 2.88126 17.8762C2.10829 17.1516 1.65362 16.1505 1.61664 15.0917V4.90836C1.65362 3.84953 2.10829 2.84841 2.88126 2.12384C3.65424 1.39927 4.68263 1.01021 5.74164 1.04169H9.44164C10.4998 1.01024 11.5273 1.39957 12.299 2.12435C13.0706 2.84914 13.5235 3.85027 13.5583 4.90836C13.5583 5.07633 13.4916 5.23742 13.3728 5.35619C13.254 5.47496 13.0929 5.54169 12.925 5.54169C12.757 5.54169 12.5959 5.47496 12.4771 5.35619C12.3584 5.23742 12.2916 5.07633 12.2916 4.90836C12.2549 4.18692 11.935 3.50914 11.4013 3.02229C10.8676 2.53544 10.1634 2.27888 9.44164 2.30836H5.74164C5.0193 2.27667 4.31383 2.53247 3.77968 3.01977C3.24553 3.50707 2.92621 4.18615 2.89164 4.90836V15.0917C2.92621 15.8139 3.24553 16.493 3.77968 16.9803C4.31383 17.4676 5.0193 17.7234 5.74164 17.6917H9.44164C10.1634 17.7212 10.8676 17.4646 11.4013 16.9778C11.935 16.4909 12.2549 15.8131 12.2916 15.0917C12.2916 14.9237 12.3584 14.7626 12.4771 14.6439C12.5959 14.5251 12.757 14.4584 12.925 14.4584C13.0929 14.4584 13.254 14.5251 13.3728 14.6439C13.4916 14.7626 13.5583 14.9237 13.5583 15.0917C13.5235 16.1498 13.0706 17.1509 12.299 17.8757C11.5273 18.6005 10.4998 18.9898 9.44164 18.9584ZM6.56664 10C6.56664 10.0832 6.58302 10.1655 6.61485 10.2424C6.64668 10.3192 6.69333 10.389 6.75214 10.4479C6.81095 10.5067 6.88077 10.5533 6.9576 10.5851C7.03444 10.617 7.1168 10.6334 7.19997 10.6334H15.5916L14.1666 12.025C14.1072 12.0839 14.06 12.154 14.0278 12.2312C13.9955 12.3085 13.979 12.3913 13.979 12.475C13.979 12.5587 13.9955 12.6416 14.0278 12.7188C14.06 12.796 14.1072 12.8661 14.1666 12.925C14.2256 12.9841 14.2958 13.0307 14.3731 13.0622C14.4504 13.0937 14.5332 13.1094 14.6166 13.1084C14.6988 13.1092 14.7803 13.0934 14.8562 13.0619C14.9322 13.0304 15.0009 12.9838 15.0583 12.925L17.5583 10.425C17.6178 10.3661 17.665 10.296 17.6972 10.2188C17.7294 10.1416 17.746 10.0587 17.746 9.97502C17.746 9.89134 17.7294 9.80848 17.6972 9.73124C17.665 9.654 17.6178 9.58391 17.5583 9.52502L15.0583 7.02502C15.0001 6.96581 14.9307 6.91878 14.8542 6.88668C14.7777 6.85457 14.6955 6.83804 14.6125 6.83804C14.5295 6.83804 14.4473 6.85457 14.3707 6.88668C14.2942 6.91878 14.2248 6.96581 14.1666 7.02502C14.1072 7.08391 14.06 7.154 14.0278 7.23124C13.9955 7.30848 13.979 7.39134 13.979 7.47502C13.979 7.55871 13.9955 7.64157 14.0278 7.71881C14.06 7.79605 14.1072 7.86613 14.1666 7.92502L15.5583 9.31669H7.19997C7.11242 9.31642 7.02576 9.3343 6.94547 9.36921C6.86518 9.40411 6.793 9.45529 6.73349 9.5195C6.67397 9.58371 6.62842 9.65957 6.5997 9.74228C6.57098 9.82498 6.55973 9.91275 6.56664 10Z" fill="#7E8299"/>
</g>
</g>
</svg>
