<svg width="20" height="20" viewBox="0 0 20 20" fill="none" xmlns="http://www.w3.org/2000/svg">
<g id="flag">
<g id="location">
<g id="flag_2">
<path id="Vector" d="M14.5583 7.50005L16.5583 5.00005C16.7247 4.79151 16.8287 4.54026 16.8586 4.27519C16.8884 4.01013 16.8428 3.74202 16.727 3.50173C16.6112 3.26143 16.4299 3.05871 16.204 2.91689C15.9781 2.77506 15.7167 2.6999 15.45 2.70005H5V2.30005C5 2.13429 4.93415 1.97532 4.81694 1.85811C4.69973 1.7409 4.54076 1.67505 4.375 1.67505C4.20924 1.67505 4.05027 1.7409 3.93306 1.85811C3.81585 1.97532 3.75 2.13429 3.75 2.30005V2.70838V12.2917V17.7C3.75 17.8658 3.81585 18.0248 3.93306 18.142C4.05027 18.2592 4.20924 18.325 4.375 18.325C4.54076 18.325 4.69973 18.2592 4.81694 18.142C4.93415 18.0248 5 17.8658 5 17.7V12.2917H15.45C15.7159 12.2923 15.9766 12.2176 16.2018 12.0762C16.4271 11.9348 16.6077 11.7326 16.7228 11.4928C16.8379 11.2531 16.8827 10.9856 16.8521 10.7215C16.8215 10.4573 16.7168 10.2072 16.55 10L14.5583 7.50005ZM15.6 10.95C15.586 10.9778 15.5646 11.0011 15.5381 11.0173C15.5116 11.0335 15.4811 11.0419 15.45 11.0417H5V3.95838H15.45C15.4811 3.95817 15.5116 3.96663 15.5381 3.98283C15.5646 3.99903 15.586 4.02231 15.6 4.05005C15.6172 4.07599 15.6264 4.10642 15.6264 4.13755C15.6264 4.16867 15.6172 4.19911 15.6 4.22505L12.9583 7.50005L15.575 10.775C15.5961 10.7984 15.6097 10.8276 15.6142 10.8587C15.6186 10.8899 15.6137 10.9217 15.6 10.95Z" />
</g>
</g>
</g>
</svg>
