<svg width="20" height="20" viewBox="0 0 20 20" fill="none" xmlns="http://www.w3.org/2000/svg">
<g id="medal-star">
<g id="support">
<path id="medal-star_2" d="M8.80001 10.8999C8.6309 10.9001 8.46382 10.8631 8.31051 10.7918C8.15719 10.7204 8.02136 10.6164 7.91255 10.4869C7.80375 10.3574 7.7246 10.2057 7.68069 10.0424C7.63677 9.87912 7.62914 9.70818 7.65834 9.54161L7.82501 8.56661L7.10834 7.87494C6.95364 7.72352 6.84446 7.53178 6.79319 7.32145C6.74193 7.11113 6.75063 6.89065 6.8183 6.68503C6.88598 6.4794 7.00992 6.29685 7.17607 6.15808C7.34223 6.01932 7.54395 5.92989 7.75834 5.89994L8.73334 5.75828L9.16668 4.86661C9.26034 4.67029 9.40815 4.50481 9.59269 4.38966C9.77723 4.2745 9.99083 4.21446 10.2083 4.21661C10.4244 4.21605 10.6363 4.27684 10.8192 4.3919C11.0021 4.50696 11.1486 4.67158 11.2417 4.86661L11.6667 5.74995L12.65 5.89994C12.8662 5.92322 13.0712 6.00774 13.241 6.14356C13.4107 6.27937 13.5382 6.46083 13.6083 6.66661C13.6806 6.87352 13.6932 7.0966 13.6445 7.31031C13.5959 7.52402 13.4881 7.7197 13.3333 7.87494L12.625 8.56661L12.7917 9.54161C12.8287 9.7553 12.8045 9.9751 12.7219 10.1756C12.6393 10.3762 12.5017 10.5493 12.325 10.6749C12.1504 10.801 11.9444 10.8763 11.7296 10.8925C11.5149 10.9087 11.2998 10.8651 11.1083 10.7666L10.2333 10.2999L9.35001 10.7666C9.17993 10.8543 8.99135 10.9 8.80001 10.8999ZM8.11668 7.10828L8.73334 7.70828C8.86597 7.83886 8.96544 7.99928 9.02342 8.17615C9.08141 8.35301 9.09624 8.54118 9.06668 8.72494L8.91668 9.55828L9.67501 9.15828C9.84106 9.07208 10.0254 9.02708 10.2125 9.02708C10.3996 9.02708 10.584 9.07208 10.75 9.15828L11.5083 9.54994L11.3667 8.71661C11.3335 8.53679 11.3435 8.35168 11.3956 8.17642C11.4477 8.00117 11.5406 7.84074 11.6667 7.70828L12.2833 7.10828L11.45 6.98328C11.2707 6.95181 11.1015 6.87791 10.9565 6.76774C10.8115 6.65756 10.695 6.51431 10.6167 6.34995L10.2333 5.58328L9.85834 6.34995C9.78001 6.51431 9.6635 6.65756 9.51853 6.76774C9.37357 6.87791 9.20435 6.95181 9.02501 6.98328L8.11668 7.10828ZM18.625 13.6249L15.8333 10.6749C16.3621 9.75317 16.6488 8.71247 16.6667 7.64995C16.6977 6.78839 16.5549 5.92942 16.2466 5.1243C15.9383 4.31919 15.471 3.58446 14.8725 2.96397C14.2739 2.34348 13.5565 1.84996 12.763 1.51288C11.9696 1.1758 11.1163 1.00208 10.2542 1.00208C9.39207 1.00208 8.53879 1.1758 7.74531 1.51288C6.95183 1.84996 6.23441 2.34348 5.63589 2.96397C5.03737 3.58446 4.57002 4.31919 4.26175 5.1243C3.95348 5.92942 3.81061 6.78839 3.84168 7.64995C3.84239 8.61163 4.06181 9.56056 4.48334 10.4249L1.37501 13.6999C1.19065 13.8939 1.06388 14.1352 1.00891 14.3971C0.953933 14.659 0.972914 14.9309 1.06373 15.1826C1.15454 15.4343 1.3136 15.6557 1.52311 15.8222C1.73262 15.9886 1.98431 16.0934 2.25001 16.1249L3.42501 16.2583C3.46526 16.2654 3.50252 16.2842 3.53216 16.3124C3.56179 16.3405 3.58249 16.3768 3.59168 16.4166L3.80834 17.5749C3.8522 17.8389 3.97032 18.0849 4.1489 18.2841C4.32747 18.4833 4.5591 18.6276 4.81668 18.6999C4.94871 18.7424 5.08634 18.7649 5.22501 18.7666C5.42018 18.7688 5.61378 18.7315 5.79421 18.657C5.97463 18.5826 6.13817 18.4725 6.27501 18.3333L10 14.3083L13.6917 18.2333C13.8251 18.3786 13.9875 18.4944 14.1683 18.5733C14.3491 18.6522 14.5444 18.6925 14.7417 18.6916C14.8796 18.6886 15.0167 18.669 15.15 18.6333C15.4135 18.563 15.6514 18.4191 15.8359 18.2183C16.0204 18.0176 16.1438 17.7684 16.1917 17.4999L16.4083 16.3333C16.4156 16.2934 16.4359 16.257 16.4661 16.2298C16.4962 16.2027 16.5345 16.1863 16.575 16.1833L17.75 16.0416C18.0157 16.0101 18.2674 15.9053 18.4769 15.7388C18.6864 15.5724 18.8455 15.351 18.9363 15.0993C19.0271 14.8476 19.0461 14.5756 18.9911 14.3138C18.9361 14.0519 18.8094 13.8105 18.625 13.6166V13.6249ZM10.2167 2.49994C11.1448 2.50028 12.0556 2.75101 12.8532 3.22572C13.6507 3.70042 14.3054 4.38151 14.7482 5.19717C15.191 6.01284 15.4055 6.93287 15.3692 7.86028C15.3329 8.78768 15.047 9.6881 14.5417 10.4666C14.429 10.6427 14.3066 10.8124 14.175 10.9749C14.05 11.1166 13.9167 11.2583 13.7833 11.3833C13.7429 11.4265 13.6982 11.4656 13.65 11.4999C13.5476 11.5984 13.4391 11.6903 13.325 11.7749L13.1833 11.8749C12.8579 12.1085 12.5054 12.3015 12.1333 12.4499H12.075C11.9001 12.5245 11.7188 12.583 11.5333 12.6249H11.4667C11.0504 12.7329 10.6217 12.7861 10.1917 12.7833H10C9.34769 12.76 8.70574 12.613 8.10834 12.3499H8.05834L7.59168 12.1083L7.50001 12.0166C7.37501 11.9416 7.25834 11.8583 7.13334 11.7666L6.98334 11.6666C6.83104 11.5421 6.68633 11.4085 6.55001 11.2666H6.50834C6.37501 11.1333 6.25834 10.9916 6.14168 10.8499L6.07501 10.7499C5.96273 10.6038 5.85975 10.4507 5.76668 10.2916C5.29832 9.50784 5.04675 8.61363 5.03775 7.70063C5.02875 6.78762 5.26264 5.88863 5.71546 5.09578C6.16827 4.30292 6.82374 3.6447 7.61469 3.18857C8.40564 2.73243 9.30364 2.49477 10.2167 2.49994ZM5.36668 17.4999C5.33627 17.5175 5.30178 17.5267 5.26668 17.5267C5.23157 17.5267 5.19708 17.5175 5.16668 17.4999C5.12666 17.4956 5.08903 17.4788 5.05912 17.4519C5.0292 17.4249 5.00852 17.3893 5.00001 17.3499L4.78334 16.1916C4.73507 15.8902 4.59184 15.6121 4.3745 15.3977C4.15716 15.1834 3.87706 15.044 3.57501 14.9999L2.40001 14.8666C2.36429 14.8601 2.33088 14.8444 2.30311 14.821C2.27534 14.7976 2.25416 14.7674 2.24168 14.7333C2.2268 14.6998 2.22282 14.6625 2.2303 14.6266C2.23777 14.5907 2.25633 14.5581 2.28334 14.5333L5.11668 11.5166L5.16668 11.5666C5.3597 11.8183 5.57141 12.0551 5.80001 12.2749L5.95001 12.4083C6.17768 12.6179 6.42304 12.8075 6.68334 12.9749L6.80834 13.0583C7.07638 13.2281 7.35469 13.3812 7.64168 13.5166C7.96997 13.6501 8.30684 13.7615 8.65001 13.8499L5.36668 17.4999ZM17.7583 14.7333C17.7454 14.7663 17.7239 14.7952 17.6961 14.8172C17.6683 14.8392 17.6351 14.8533 17.6 14.8583L16.4333 14.9999C16.1263 15.0317 15.8381 15.1628 15.6125 15.3734C15.3869 15.584 15.2362 15.8625 15.1833 16.1666L15 17.2833C14.9938 17.3182 14.9781 17.3506 14.9545 17.3771C14.931 17.4036 14.9006 17.423 14.8667 17.4333C14.8312 17.4429 14.7938 17.4425 14.7585 17.4322C14.7232 17.4219 14.6914 17.4021 14.6667 17.3749L11.4417 13.9499H11.4833C11.7946 13.8854 12.1009 13.7991 12.4 13.6916L12.5917 13.6166C12.8788 13.5068 13.1573 13.3759 13.425 13.2249L13.6167 13.1083C13.8785 12.9477 14.129 12.7695 14.3667 12.5749L14.475 12.4749C14.7277 12.25 14.9644 12.0078 15.1833 11.7499L17.7583 14.4916C17.777 14.5201 17.7869 14.5534 17.7869 14.5874C17.7869 14.6215 17.777 14.6548 17.7583 14.6833V14.7333Z" fill="#7E8299"/>
</g>
</g>
</svg>
