<svg width="20" height="20" viewBox="0 0 20 20" fill="none" xmlns="http://www.w3.org/2000/svg">
<g id="messages">
<g id="communication">
<path id="messages_2" d="M14.45 13.7334V8.23336C14.4478 7.53784 14.1705 6.87144 13.6787 6.37963C13.1869 5.88782 12.5205 5.61056 11.825 5.60836H4.32498V4.90002C4.32496 3.87663 4.72978 2.89478 5.45109 2.16879C6.17239 1.4428 7.1516 1.03163 8.17498 1.02502H15.0416C16.0694 1.02502 17.055 1.43328 17.7817 2.15999C18.5084 2.88669 18.9166 3.87231 18.9166 4.90002V9.90002C18.9145 10.9191 18.511 11.8963 17.7935 12.6201C17.076 13.3438 16.1023 13.7557 15.0833 13.7667L14.45 13.7334ZM11.825 4.35836C12.8527 4.35836 13.8383 4.76662 14.565 5.49332C15.2917 6.22002 15.7 7.20564 15.7 8.23336V12.4C16.2562 12.256 16.7498 11.9334 17.1051 11.4818C17.4604 11.0302 17.6576 10.4745 17.6666 9.90002V4.90002C17.6644 4.20451 17.3872 3.5381 16.8954 3.0463C16.4036 2.55449 15.7372 2.27722 15.0416 2.27502H8.17498C7.57159 2.27428 6.98649 2.4821 6.51875 2.86328C6.05101 3.24446 5.72937 3.77557 5.60831 4.36669L11.825 4.35836ZM8.39165 18.975C8.11939 18.9764 7.85095 18.911 7.6098 18.7846C7.36865 18.6582 7.16214 18.4747 7.00831 18.25L6.25831 17.1917C6.23233 17.1517 6.19639 17.1191 6.15402 17.0972C6.11165 17.0753 6.06431 17.0648 6.01665 17.0667H4.99998C4.48761 17.0722 3.97924 16.976 3.50428 16.7838C3.02933 16.5915 2.59722 16.3069 2.23297 15.9466C1.86871 15.5862 1.57955 15.1572 1.38221 14.6843C1.18488 14.2114 1.08328 13.7041 1.08331 13.1917V8.23336C1.08328 7.72096 1.18488 7.21364 1.38221 6.74077C1.57955 6.2679 1.86871 5.83886 2.23297 5.47848C2.59722 5.1181 3.02933 4.83355 3.50428 4.64128C3.97924 4.44901 4.48761 4.35285 4.99998 4.35836H11.8666C12.8944 4.35836 13.88 4.76662 14.6067 5.49332C15.3334 6.22002 15.7416 7.20564 15.7416 8.23336V13.1917C15.7416 14.2194 15.3334 15.205 14.6067 15.9317C13.88 16.6584 12.8944 17.0667 11.8666 17.0667H10.7666C10.7191 17.0656 10.6721 17.0764 10.6298 17.0983C10.5876 17.1201 10.5515 17.1523 10.525 17.1917L9.77498 18.25C9.62115 18.4747 9.41464 18.6582 9.17349 18.7846C8.93234 18.911 8.6639 18.9764 8.39165 18.975ZM4.99998 5.60836C4.65207 5.60395 4.30674 5.66854 3.98394 5.79838C3.66113 5.92822 3.36726 6.12074 3.11931 6.36483C2.87135 6.60891 2.67422 6.89971 2.53931 7.22043C2.4044 7.54115 2.33439 7.88542 2.33331 8.23336V13.1917C2.33105 13.5413 2.39866 13.8879 2.53219 14.2111C2.66571 14.5343 2.86246 14.8275 3.11086 15.0736C3.35927 15.3196 3.65434 15.5136 3.97875 15.6441C4.30316 15.7746 4.65036 15.8389 4.99998 15.8334H6.01665C6.26534 15.8321 6.51059 15.8914 6.73127 16.0061C6.95194 16.1208 7.1414 16.2875 7.28331 16.4917L8.02498 17.5C8.06631 17.559 8.12118 17.6071 8.18498 17.6405C8.24878 17.6738 8.31965 17.6914 8.39165 17.6917C8.46364 17.6914 8.53451 17.6738 8.59831 17.6405C8.66212 17.6071 8.71698 17.559 8.75831 17.5L9.49998 16.4417C9.64734 16.2467 9.83919 16.0897 10.0595 15.9839C10.2799 15.8781 10.5223 15.8265 10.7666 15.8334H11.825C12.5212 15.8334 13.1889 15.5568 13.6811 15.0645C14.1734 14.5722 14.45 13.9046 14.45 13.2084V8.23336C14.4478 7.53784 14.1705 6.87144 13.6787 6.37963C13.1869 5.88782 12.5205 5.61056 11.825 5.60836H4.99998ZM5.48331 10C5.32838 10 5.17694 10.046 5.04812 10.132C4.9193 10.2181 4.8189 10.3405 4.75961 10.4836C4.70032 10.6267 4.68481 10.7842 4.71503 10.9362C4.74526 11.0881 4.81986 11.2277 4.92941 11.3373C5.03896 11.4468 5.17854 11.5214 5.33049 11.5516C5.48244 11.5819 5.63995 11.5664 5.78308 11.5071C5.92622 11.4478 6.04856 11.3474 6.13463 11.2186C6.2207 11.0897 6.26665 10.9383 6.26665 10.7834C6.26448 10.5763 6.18125 10.3783 6.03482 10.2319C5.88838 10.0854 5.69039 10.0022 5.48331 10ZM8.39998 10C8.24657 9.99708 8.09568 10.0392 7.96603 10.1213C7.83638 10.2033 7.73367 10.3217 7.67067 10.4616C7.60767 10.6015 7.58714 10.7568 7.61163 10.9083C7.63612 11.0597 7.70456 11.2007 7.80844 11.3136C7.91232 11.4265 8.04708 11.5064 8.19598 11.5434C8.34489 11.5804 8.50138 11.5729 8.64604 11.5217C8.7907 11.4706 8.91715 11.3781 9.0097 11.2557C9.10225 11.1333 9.15682 10.9865 9.16665 10.8334C9.17225 10.728 9.15674 10.6226 9.12103 10.5234C9.08532 10.4241 9.03013 10.333 8.95871 10.2553C8.88728 10.1777 8.80107 10.1151 8.70512 10.0713C8.60917 10.0274 8.50542 10.0032 8.39998 10ZM11.3083 10C11.1534 10 11.0019 10.046 10.8731 10.132C10.7443 10.2181 10.6439 10.3405 10.5846 10.4836C10.5253 10.6267 10.5098 10.7842 10.54 10.9362C10.5703 11.0881 10.6449 11.2277 10.7544 11.3373C10.864 11.4468 11.0035 11.5214 11.1555 11.5516C11.3074 11.5819 11.4649 11.5664 11.6081 11.5071C11.7512 11.4478 11.8736 11.3474 11.9596 11.2186C12.0457 11.0897 12.0916 10.9383 12.0916 10.7834C12.0895 10.5763 12.0063 10.3783 11.8598 10.2319C11.7134 10.0854 11.5154 10.0022 11.3083 10Z" />
</g>
</g>
</svg>
