<svg width="20" height="20" viewBox="0 0 20 20" fill="none" xmlns="http://www.w3.org/2000/svg">
<g id="moon">
<g id="weather">
<path id="Vector" d="M10.6333 18.1251C10.0736 18.1256 9.5152 18.0698 8.96665 17.9584C7.81703 17.7299 6.72945 17.2586 5.77664 16.5759C4.82383 15.8933 4.02775 15.0151 3.44165 14.0001C2.82669 12.9586 2.44578 11.7958 2.32539 10.5924C2.20499 9.38894 2.348 8.17372 2.74446 7.0311C3.14093 5.88848 3.78136 4.84586 4.62127 3.97563C5.46119 3.1054 6.48047 2.42843 7.60831 1.99172C7.92445 1.87328 8.2681 1.84882 8.59782 1.92127C8.92755 1.99372 9.22928 2.16 9.46665 2.40005C9.69372 2.62645 9.85066 2.91354 9.91865 3.2269C9.98664 3.54026 9.9628 3.86657 9.84998 4.16672C9.4746 5.07624 9.34251 6.06782 9.46671 7.04389C9.59091 8.01996 9.96712 8.94686 10.5583 9.73339C11.1603 10.5424 11.9648 11.1787 12.8908 11.578C13.8168 11.9774 14.8317 12.1258 15.8333 12.0084C16.1566 11.9673 16.4848 12.0249 16.7748 12.1736C17.0647 12.3223 17.303 12.5552 17.4583 12.8417C17.6299 13.1329 17.7127 13.4678 17.6964 13.8054C17.6801 14.143 17.5655 14.4684 17.3666 14.7417C16.8824 15.4108 16.2977 16.0011 15.6333 16.4917C14.1867 17.5617 12.4326 18.1347 10.6333 18.1251ZM8.25831 3.12505C8.20059 3.11315 8.14104 3.11315 8.08331 3.12505C7.12232 3.49365 6.25321 4.06725 5.53646 4.80592C4.81971 5.5446 4.27255 6.43059 3.93307 7.40225C3.59358 8.37391 3.46993 9.40787 3.57071 10.4322C3.6715 11.4565 3.9943 12.4465 4.51665 13.3334C5.02171 14.1942 5.70261 14.939 6.5149 15.5189C7.3272 16.0989 8.25264 16.501 9.23086 16.6992C10.2091 16.8974 11.2181 16.8871 12.192 16.6689C13.166 16.4508 14.083 16.0298 14.8833 15.4334C15.4435 15.0121 15.9402 14.5126 16.3583 13.9501C16.4117 13.8714 16.4402 13.7785 16.4402 13.6834C16.4402 13.5883 16.4117 13.4954 16.3583 13.4167C16.3227 13.3457 16.2659 13.2875 16.1957 13.2501C16.1255 13.2128 16.0455 13.1982 15.9666 13.2084C14.7684 13.3518 13.5535 13.1808 12.4415 12.7121C11.3295 12.2435 10.3586 11.4933 9.62454 10.5355C8.89043 9.57775 8.41836 8.44533 8.25479 7.24971C8.09122 6.05409 8.24177 4.83649 8.69165 3.71672C8.72144 3.64224 8.72864 3.56063 8.71234 3.48208C8.69603 3.40353 8.65695 3.33153 8.59998 3.27505C8.55581 3.22866 8.50286 3.1915 8.44421 3.16575C8.38555 3.14 8.32236 3.12617 8.25831 3.12505Z" />
</g>
</g>
</svg>
