<svg width="20" height="20" viewBox="0 0 20 20" fill="none" xmlns="http://www.w3.org/2000/svg">
<g id="user">
<g id="users">
<path id="user_2" d="M10 10.5583C9.05749 10.5583 8.1362 10.2783 7.35299 9.754C6.56978 9.22966 5.95993 8.48453 5.60078 7.61311C5.24164 6.7417 5.14937 5.78325 5.33569 4.85933C5.52201 3.9354 5.97852 3.08762 6.64732 2.42351C7.31613 1.75939 8.1671 1.30885 9.09231 1.12903C10.0175 0.949211 10.9753 1.04821 11.8442 1.41347C12.713 1.77874 13.4539 2.39381 13.9727 3.18069C14.4915 3.96756 14.7649 4.89079 14.7583 5.83329C14.7495 7.0895 14.2443 8.29125 13.3529 9.17642C12.4615 10.0616 11.2562 10.5583 10 10.5583ZM10 2.29163C9.30755 2.29166 8.63059 2.49661 8.05439 2.88065C7.4782 3.2647 7.02853 3.81067 6.76204 4.44979C6.49555 5.08892 6.42416 5.79261 6.55685 6.47224C6.68954 7.15186 7.02038 7.77702 7.5077 8.26897C7.99502 8.76092 8.61702 9.09766 9.29536 9.23677C9.9737 9.37588 10.678 9.31114 11.3197 9.05071C11.9613 8.79028 12.5115 8.3458 12.9009 7.77325C13.2904 7.20071 13.5018 6.52572 13.5083 5.83329C13.5116 5.37008 13.4234 4.91078 13.2487 4.48177C13.0739 4.05277 12.8162 3.66251 12.4902 3.33341C12.1642 3.00432 11.7764 2.74287 11.349 2.56409C10.9217 2.38531 10.4632 2.29271 10 2.29163ZM16.4167 18.9583H3.58334C3.3398 18.9607 3.09869 18.9098 2.87697 18.809C2.65525 18.7082 2.45831 18.5601 2.30001 18.375C2.16232 18.2151 2.06117 18.0272 2.00359 17.8243C1.94602 17.6213 1.93342 17.4083 1.96668 17.2C2.55001 13.7416 6.00834 11.1333 10 11.1333C13.9917 11.1333 17.45 13.7416 18.0333 17.2C18.0666 17.4083 18.054 17.6213 17.9964 17.8243C17.9389 18.0272 17.8377 18.2151 17.7 18.375C17.5417 18.5601 17.3448 18.7082 17.1231 18.809C16.9013 18.9098 16.6602 18.9607 16.4167 18.9583ZM10 12.3833C6.60834 12.3833 3.68334 14.5416 3.20001 17.3833C3.19652 17.4117 3.19918 17.4406 3.2078 17.4679C3.21643 17.4952 3.23082 17.5204 3.25001 17.5416C3.29171 17.5883 3.34321 17.6253 3.40083 17.6497C3.45845 17.6742 3.52078 17.6857 3.58334 17.6833H16.4167C16.4792 17.6857 16.5416 17.6742 16.5992 17.6497C16.6568 17.6253 16.7083 17.5883 16.75 17.5416C16.7692 17.5204 16.7836 17.4952 16.7922 17.4679C16.8008 17.4406 16.8035 17.4117 16.8 17.3833C16.3167 14.5416 13.3917 12.3833 10 12.3833Z" />
</g>
</g>
</svg>
