<svg width="20" height="20" viewBox="0 0 20 20" fill="none" xmlns="http://www.w3.org/2000/svg">
<g id="wallet">
<g id="finance">
<g id="finance_2">
<path id="Vector" d="M4.77502 8.26392C4.60926 8.26392 4.45029 8.32713 4.33308 8.43965C4.21587 8.55217 4.15002 8.70479 4.15002 8.86392C4.15002 9.02305 4.21587 9.17566 4.33308 9.28818C4.45029 9.4007 4.60926 9.46392 4.77502 9.46392H9.90836C10.0741 9.46392 10.2331 9.4007 10.3503 9.28818C10.4675 9.17566 10.5334 9.02305 10.5334 8.86392C10.5334 8.70479 10.4675 8.55217 10.3503 8.43965C10.2331 8.32713 10.0741 8.26392 9.90836 8.26392H4.77502Z" fill="#7E8299"/>
<path id="Vector_2" d="M17.5583 9.07996H15.7833C15.1645 9.07996 14.571 9.31596 14.1334 9.73604C13.6958 10.1561 13.45 10.7259 13.45 11.32C13.45 11.914 13.6958 12.4838 14.1334 12.9039C14.571 13.324 15.1645 13.56 15.7833 13.56H17.5583C17.9296 13.56 18.2857 13.4184 18.5483 13.1663C18.8108 12.9143 18.9583 12.5724 18.9583 12.216V10.4C18.9518 10.0477 18.8014 9.71196 18.5396 9.46508C18.2777 9.2182 17.9254 9.0799 17.5583 9.07996ZM17.7083 12.216C17.7083 12.2541 17.6925 12.2908 17.6644 12.3178C17.6363 12.3448 17.5981 12.36 17.5583 12.36H15.7833C15.496 12.36 15.2205 12.2504 15.0173 12.0553C14.8141 11.8603 14.7 11.5958 14.7 11.32C14.7 11.0441 14.8141 10.7796 15.0173 10.5846C15.2205 10.3895 15.496 10.28 15.7833 10.28H17.5583C17.5981 10.28 17.6363 10.2951 17.6644 10.3221C17.6925 10.3491 17.7083 10.3858 17.7083 10.424V12.216Z" fill="#7E8299"/>
<path id="Vector_3" d="M16.75 14.64C16.592 14.5972 16.4229 14.615 16.2784 14.6897C16.1338 14.7643 16.025 14.8899 15.975 15.04C15.8168 15.523 15.5035 15.9457 15.0799 16.2474C14.6563 16.5492 14.1441 16.7146 13.6167 16.72H4.75836C4.09532 16.72 3.45944 16.4671 2.9906 16.017C2.52176 15.5669 2.25836 14.9565 2.25836 14.32V8.35996C2.26672 8.33389 2.26672 8.30602 2.25836 8.27996C2.26929 7.65039 2.5375 7.05017 3.00517 6.6087C3.47283 6.16723 4.10248 5.91987 4.75836 5.91996H13.5917C14.1384 5.91826 14.67 6.09216 15.1019 6.41399C15.5338 6.73582 15.8411 7.18708 15.975 7.69596C16.0159 7.85084 16.1192 7.98379 16.2622 8.06556C16.4052 8.14732 16.5762 8.17121 16.7375 8.13196C16.8989 8.0927 17.0374 7.99353 17.1225 7.85626C17.2077 7.71898 17.2326 7.55484 17.1917 7.39996C16.9872 6.63575 16.5245 5.95819 15.8761 5.47328C15.2278 4.98836 14.4303 4.72344 13.6084 4.71996H13.075C12.9214 3.97856 12.5057 3.31086 11.8983 2.82981C11.2909 2.34875 10.5291 2.08387 9.7417 2.07996H4.4917C3.57881 2.08206 2.70382 2.43058 2.05754 3.04952C1.41125 3.66845 1.04609 4.5076 1.0417 5.38396V14.344C1.0406 14.8125 1.13565 15.2767 1.32142 15.71C1.50719 16.1433 1.78004 16.5372 2.12439 16.8693C2.46874 17.2013 2.87785 17.465 3.32836 17.6453C3.77886 17.8256 4.26195 17.9189 4.75003 17.92H13.6084C14.405 17.9227 15.1812 17.678 15.821 17.2224C16.4609 16.7667 16.93 16.1246 17.1584 15.392C17.208 15.2403 17.1929 15.0758 17.1163 14.9348C17.0397 14.7938 16.908 14.6878 16.75 14.64ZM2.2917 5.38396C2.29608 4.82586 2.52954 4.29193 2.94141 3.89803C3.35328 3.50414 3.91033 3.28205 4.4917 3.27996H9.70836C10.1698 3.27676 10.6204 3.41455 10.9949 3.67342C11.3694 3.93228 11.6485 4.2988 11.7917 4.71996H4.75836C2.67503 4.71996 2.25836 5.69596 2.25836 5.69596L2.2917 5.38396Z" fill="#7E8299"/>
</g>
</g>
</g>
</svg>
