<svg width="33" height="27" viewBox="0 0 33 27" fill="none" xmlns="http://www.w3.org/2000/svg">
<path fill-rule="evenodd" clip-rule="evenodd" d="M6.67319 0.84306C4.83998 0.84306 3.4835 2.4476 3.54424 4.18769C3.60253 5.85944 3.52679 8.0246 2.98174 9.79029C2.43474 11.5609 1.51029 12.683 0 12.827V14.453C1.51029 14.5973 2.43474 15.7188 2.98168 17.4897C3.52679 19.2554 3.60247 21.4206 3.54418 23.0923C3.48343 24.8321 4.83992 26.4369 6.67344 26.4369H25.4578C27.291 26.4369 28.6472 24.8324 28.5865 23.0923C28.5282 21.4206 28.6039 19.2554 29.149 17.4897C29.696 15.7188 30.6182 14.5969 32.1285 14.453V12.827C30.6182 12.6827 29.696 11.5612 29.149 9.79029C28.6038 8.02485 28.5282 5.85944 28.5865 4.18769C28.6472 2.44785 27.291 0.84306 25.4578 0.84306H6.67294H6.67319ZM21.7821 16.5978C21.7821 18.9938 19.9949 20.4469 17.0289 20.4469H11.9801C11.8357 20.4469 11.6972 20.3895 11.595 20.2874C11.4929 20.1853 11.4356 20.0468 11.4356 19.9024V7.3777C11.4356 7.23327 11.4929 7.09476 11.595 6.99264C11.6972 6.89052 11.8357 6.83315 11.9801 6.83315H17.0002C19.4733 6.83315 21.0963 8.17275 21.0963 10.2295C21.0963 11.6731 20.0045 12.9654 18.6135 13.1918V13.2671C20.507 13.4748 21.7821 14.7863 21.7821 16.5978ZM16.4784 8.55936H13.5996V12.6256H16.0243C17.8987 12.6256 18.9322 11.8709 18.9322 10.5218C18.932 9.25747 18.0434 8.55936 16.4784 8.55936ZM13.5996 14.239V18.7201H16.5843C18.5359 18.7201 19.5696 17.9371 19.5696 16.4654C19.5696 14.9938 18.5069 14.2388 16.4588 14.2388H13.5996V14.239Z" fill="#7727ED"/>
</svg>
