<svg width="12" height="11" viewBox="0 0 12 11" fill="none" xmlns="http://www.w3.org/2000/svg">
<path d="M11.095 2.29053C10.9144 1.96124 10.6703 1.67104 10.3767 1.43674C10.0832 1.20244 9.74615 1.02868 9.38502 0.925528L7.66002 0.425528C7.09211 0.257014 6.48556 0.271621 5.92642 0.467274C5.36728 0.662927 4.88396 1.02969 4.54502 1.51553C4.46584 1.5279 4.38739 1.54459 4.31002 1.56553L2.59002 2.06553C1.86408 2.28414 1.25439 2.78157 0.894513 3.44885C0.534633 4.11613 0.453907 4.89885 0.670021 5.62553L1.60002 8.75553C1.70717 9.11581 1.88429 9.45143 2.12125 9.74321C2.35821 10.035 2.65036 10.2772 2.981 10.456C3.31163 10.6348 3.67426 10.7466 4.04816 10.7851C4.42205 10.8237 4.79987 10.7881 5.16002 10.6805L6.88002 10.1805C7.24305 10.0814 7.5829 9.91147 7.88002 9.68053C8.47003 9.64524 9.03469 9.42832 9.49658 9.05952C9.95848 8.69072 10.295 8.18809 10.46 7.62053L11.36 4.49553C11.4674 4.12919 11.4993 3.74487 11.4537 3.36584C11.4082 2.98682 11.2861 2.62099 11.095 2.29053ZM4.94502 9.96053C4.41062 10.121 3.8344 10.0633 3.34245 9.79998C2.8505 9.53667 2.48288 9.08922 2.32002 8.55553L1.39002 5.42553C1.31007 5.16027 1.28327 4.88183 1.31116 4.60619C1.33905 4.33055 1.42107 4.06313 1.55253 3.81925C1.68399 3.57538 1.8623 3.35985 2.07723 3.18504C2.29216 3.01022 2.53948 2.87956 2.80502 2.80053L4.11002 2.41053L3.21502 5.50553C3.10873 5.86665 3.0749 6.24523 3.11549 6.61948C3.15607 6.99372 3.27027 7.35625 3.45151 7.68619C3.63274 8.01613 3.87744 8.30698 4.17151 8.54198C4.46559 8.77699 4.80323 8.95152 5.16502 9.05553L6.61002 9.47553L4.94502 9.96053ZM10.615 4.26053L9.71002 7.38553C9.63559 7.65154 9.5088 7.90001 9.33709 8.11637C9.16537 8.33274 8.95218 8.51264 8.71002 8.64553C8.2199 8.91548 7.64277 8.9802 7.10502 8.82553L5.38002 8.32553C5.1137 8.24848 4.86517 8.11971 4.64865 7.94656C4.43212 7.77342 4.25184 7.5593 4.11811 7.31644C3.98438 7.07359 3.89981 6.80676 3.86926 6.53121C3.8387 6.25566 3.86275 5.97678 3.94002 5.71053L4.84002 2.58553C4.97071 2.15541 5.23504 1.77812 5.59467 1.5084C5.9543 1.23867 6.39051 1.09056 6.84002 1.08553C7.0397 1.08607 7.23831 1.11468 7.43002 1.17053L9.15502 1.67053C9.42134 1.74758 9.66987 1.87635 9.88639 2.0495C10.1029 2.22264 10.2832 2.43676 10.4169 2.67961C10.5507 2.92247 10.6352 3.1893 10.6658 3.46485C10.6963 3.7404 10.6723 4.01927 10.595 4.28553L10.615 4.26053Z" fill="#5E6278"/>
</svg>
