<svg xmlns="http://www.w3.org/2000/svg" width="171.3" height="183.52" viewBox="0 0 171.3 183.52">
  <path id="fingerprint_FILL0_wght400_GRAD0_opsz48" d="M91.3,4a123.812,123.812,0,0,1,30.06,3.673A139.011,139.011,0,0,1,149.531,18a1.767,1.767,0,0,1,1.3,1.377,2.242,2.242,0,0,1-.354,1.607,3.737,3.737,0,0,1-1.3,1.148,2.286,2.286,0,0,1-2,0,124.491,124.491,0,0,0-27-9.872,123.364,123.364,0,0,0-57.409-.115,115.075,115.075,0,0,0-26.641,9.986,2.09,2.09,0,0,1-1.768.115A3.365,3.365,0,0,1,33.3,21.218a1.841,1.841,0,0,1-.472-1.377,1.533,1.533,0,0,1,.707-1.377A135.593,135.593,0,0,1,61.708,7.788,118.411,118.411,0,0,1,91.3,4Zm0,23.187a111.6,111.6,0,0,1,47.978,10.56,98.275,98.275,0,0,1,37.369,30.3,2.876,2.876,0,0,1,.589,1.837,2.591,2.591,0,0,1-.825,1.377,2.433,2.433,0,0,1-1.768.689,2.637,2.637,0,0,1-2-1.148,91.758,91.758,0,0,0-35.483-28.926A106.818,106.818,0,0,0,91.3,31.778a103.533,103.533,0,0,0-45.5,10.216A96.263,96.263,0,0,0,10.43,70.806a3.855,3.855,0,0,1-1.768,1.377,2.457,2.457,0,0,1-1.768-.23,1.549,1.549,0,0,1-.943-1.492,4.213,4.213,0,0,1,.472-1.951A98.567,98.567,0,0,1,43.437,37.977,108.854,108.854,0,0,1,91.3,27.187Zm0,45.226q21.69,0,37.369,14t15.678,34.436a2.3,2.3,0,0,1-.589,1.722,2.442,2.442,0,0,1-1.768.574,2.9,2.9,0,0,1-1.886-.574,2.086,2.086,0,0,1-.707-1.722q0-18.6-14.264-31.222A49.356,49.356,0,0,0,91.3,77Q71.728,77,57.7,89.63T43.672,120.852q0,19.514,6.955,33.288t20.629,27.549a2.084,2.084,0,0,1,.825,1.722,2.609,2.609,0,0,1-.825,1.492,3.02,3.02,0,0,1-1.415.689,2.532,2.532,0,0,1-2.122-.689A125.405,125.405,0,0,1,46.5,155.862q-7.78-15.037-7.78-35.01,0-20.432,15.443-34.436T91.3,72.413Zm-.236,45.914a2.2,2.2,0,0,1,1.768.689,2.728,2.728,0,0,1,.589,1.837A38.633,38.633,0,0,0,107.447,151.5a48.265,48.265,0,0,0,32.418,12.053q1.886,0,4.48-.23t5.658-.689a2.2,2.2,0,0,1,1.886.344,2.828,2.828,0,0,1,.943,1.263,2.216,2.216,0,0,1-.118,1.607,2.023,2.023,0,0,1-1.532.918,33.64,33.64,0,0,1-7.427,1.263q-3.183.115-3.89.115a52.54,52.54,0,0,1-35.954-13.43Q88.7,141.284,88.7,120.852a2.728,2.728,0,0,1,.589-1.837A2.2,2.2,0,0,1,91.061,118.327ZM91.3,95.37a28.026,28.026,0,0,1,19.451,7.346,23.473,23.473,0,0,1,8.134,18.136,18.629,18.629,0,0,0,6.955,14.693,24.047,24.047,0,0,0,16.15,5.969,22.87,22.87,0,0,0,15.678-5.969,18.892,18.892,0,0,0,6.719-14.693q0-28.237-21.572-47.292T91.3,54.506q-29.942,0-51.515,19.054T18.21,120.852a103.275,103.275,0,0,0,1.3,14.348,98.411,98.411,0,0,0,5.54,20.088,1.652,1.652,0,0,1,0,1.722,5.108,5.108,0,0,1-1.179,1.033,3,3,0,0,1-2,.23,2.1,2.1,0,0,1-1.532-1.377A126.845,126.845,0,0,1,15.5,139.1a95.143,95.143,0,0,1-1.768-18.251q0-29.615,23.1-50.621T91.3,49.226q32.064,0,55.051,20.661t22.987,50.965a23.379,23.379,0,0,1-8.016,17.907,27.6,27.6,0,0,1-19.333,7.346,28.762,28.762,0,0,1-19.8-7.346,23.09,23.09,0,0,1-8.252-17.907,19.133,19.133,0,0,0-6.719-14.922A23.173,23.173,0,0,0,91.3,99.961a23.607,23.607,0,0,0-16.032,5.969,18.992,18.992,0,0,0-6.837,14.922q0,23.875,14.853,39.831A79.866,79.866,0,0,0,120.3,183.066a2.893,2.893,0,0,1,1.768,1.148,2.216,2.216,0,0,1,.118,1.607,1.961,1.961,0,0,1-.943,1.492,3.006,3.006,0,0,1-1.886.115q-24.284-6.2-39.962-23.761T63.712,120.852a23.473,23.473,0,0,1,8.134-18.136A28.026,28.026,0,0,1,91.3,95.37Z" transform="translate(-5.95 -4)" fill="#515151"/>
</svg>
