<svg id="Component_91_77" data-name="Component 91 – 77" xmlns="http://www.w3.org/2000/svg" width="15.71" height="15.71" viewBox="0 0 15.71 15.71">
  <path id="info_FILL0_wght400_GRAD0_opsz48" d="M11.325,15.782H12.5V11.069H11.325Zm.53-6.166a.645.645,0,0,0,.461-.177.6.6,0,0,0,.187-.452.66.66,0,0,0-.187-.471.64.64,0,0,0-.923,0,.66.66,0,0,0-.187.471.6.6,0,0,0,.187.452.645.645,0,0,0,.461.177Zm0,10.094a7.6,7.6,0,0,1-3.044-.619A7.914,7.914,0,0,1,4.619,14.9a7.846,7.846,0,0,1,0-6.107A7.85,7.85,0,0,1,6.307,6.3a8.052,8.052,0,0,1,2.5-1.679,7.846,7.846,0,0,1,6.107,0,7.843,7.843,0,0,1,4.173,4.173,7.846,7.846,0,0,1,0,6.107,8.052,8.052,0,0,1-1.679,2.5,7.85,7.85,0,0,1-2.494,1.689A7.649,7.649,0,0,1,11.855,19.71Zm.02-1.178a6.4,6.4,0,0,0,4.713-1.954,6.474,6.474,0,0,0,1.944-4.742,6.418,6.418,0,0,0-1.944-4.713,6.441,6.441,0,0,0-4.733-1.944A6.451,6.451,0,0,0,7.132,7.122a6.425,6.425,0,0,0-1.954,4.733,6.434,6.434,0,0,0,1.954,4.723A6.457,6.457,0,0,0,11.875,18.532ZM11.855,11.855Z" transform="translate(-4 -4)" fill="#fff"/>
</svg>
