<svg width="11" height="18" viewBox="0 0 11 18" fill="none" xmlns="http://www.w3.org/2000/svg">
<path d="M9.0125 17.5278C8.84712 17.5271 8.68351 17.4936 8.53117 17.4292C8.37883 17.3649 8.24077 17.2709 8.125 17.1528L0.725002 9.71528C0.492189 9.48108 0.361511 9.16427 0.361511 8.83403C0.361511 8.5038 0.492189 8.18699 0.725002 7.95278L8.125 0.540283C8.36038 0.304903 8.67962 0.172668 9.0125 0.172668C9.34538 0.172668 9.66462 0.304903 9.9 0.540283C10.1354 0.775663 10.2676 1.09491 10.2676 1.42778C10.2676 1.76066 10.1354 2.0799 9.9 2.31528L3.375 8.77778L9.9 15.3028C10.111 15.4698 10.2624 15.7005 10.3318 15.9605C10.4012 16.2205 10.3848 16.4959 10.2851 16.7459C10.1854 16.9958 10.0077 17.2069 9.77841 17.3478C9.54914 17.4887 9.28052 17.5518 9.0125 17.5278Z" fill="#9498AB"/>
</svg>
