<svg width="18" height="19" viewBox="0 0 18 19" fill="none" xmlns="http://www.w3.org/2000/svg">
<path d="M15.5417 5.175H13.3251V2.95833C13.3251 2.31739 13.0705 1.7027 12.6173 1.24949C12.164 0.796276 11.5494 0.541664 10.9084 0.541664H7.09175C6.45081 0.541664 5.83612 0.796276 5.38291 1.24949C4.92969 1.7027 4.67508 2.31739 4.67508 2.95833V5.175H2.45841C1.81747 5.175 1.20279 5.42961 0.749573 5.88282C0.29636 6.33604 0.041748 6.95072 0.041748 7.59166V11.4083C0.041748 12.0493 0.29636 12.664 0.749573 13.1172C1.20279 13.5704 1.81747 13.825 2.45841 13.825H4.67508V16.0417C4.67508 16.6826 4.92969 17.2973 5.38291 17.7505C5.83612 18.2037 6.45081 18.4583 7.09175 18.4583H10.9084C11.5494 18.4583 12.164 18.2037 12.6173 17.7505C13.0705 17.2973 13.3251 16.6826 13.3251 16.0417V13.825H15.5417C16.1827 13.825 16.7974 13.5704 17.2506 13.1172C17.7038 12.664 17.9584 12.0493 17.9584 11.4083V7.59166C17.9584 6.95072 17.7038 6.33604 17.2506 5.88282C16.7974 5.42961 16.1827 5.175 15.5417 5.175ZM2.45841 12.575C2.149 12.575 1.85225 12.4521 1.63346 12.2333C1.41466 12.0145 1.29175 11.7178 1.29175 11.4083V7.59166C1.29175 7.28225 1.41466 6.9855 1.63346 6.76671C1.85225 6.54791 2.149 6.425 2.45841 6.425H5.30008C5.46517 6.42284 5.62289 6.3563 5.73964 6.23955C5.85638 6.12281 5.92292 5.96509 5.92508 5.8V2.95833C5.92508 2.64891 6.048 2.35217 6.26679 2.13337C6.48558 1.91458 6.78233 1.79166 7.09175 1.79166H10.9084C11.2178 1.79166 11.5146 1.91458 11.7334 2.13337C11.9522 2.35217 12.0751 2.64891 12.0751 2.95833V7.58333C12.0762 7.75326 12.0435 7.92173 11.979 8.07894C11.9145 8.23615 11.8194 8.37898 11.6992 8.49915C11.5791 8.61931 11.4362 8.71441 11.279 8.77893C11.1218 8.84345 10.9533 8.87611 10.7834 8.875H7.33342C6.62243 8.8772 5.94119 9.16061 5.43844 9.66336C4.93569 10.1661 4.65228 10.8473 4.65008 11.5583V12.575H2.45841ZM16.7084 11.4083C16.7084 11.7178 16.5855 12.0145 16.3667 12.2333C16.1479 12.4521 15.8512 12.575 15.5417 12.575H12.7001C12.535 12.5772 12.3773 12.6437 12.2605 12.7604C12.1438 12.8772 12.0772 13.0349 12.0751 13.2V16.0417C12.0751 16.1949 12.0449 16.3466 11.9863 16.4881C11.9276 16.6297 11.8417 16.7583 11.7334 16.8666C11.625 16.975 11.4964 17.0609 11.3549 17.1195C11.2133 17.1782 11.0616 17.2083 10.9084 17.2083H7.09175C6.78233 17.2083 6.48558 17.0854 6.26679 16.8666C6.048 16.6478 5.92508 16.3511 5.92508 16.0417V11.5583C5.92502 11.1825 6.0726 10.8216 6.33602 10.5535C6.59944 10.2855 6.95762 10.1316 7.33342 10.125H10.7584C11.094 10.1272 11.4267 10.0631 11.7375 9.93649C12.0482 9.80984 12.3309 9.6231 12.5694 9.38698C12.8078 9.15085 12.9973 8.86998 13.127 8.56048C13.2567 8.25097 13.324 7.91891 13.3251 7.58333V6.425H15.5417C15.8512 6.425 16.1479 6.54791 16.3667 6.76671C16.5855 6.9855 16.7084 7.28225 16.7084 7.59166V11.4083ZM6.70842 3.4C6.70841 3.31831 6.72463 3.23743 6.75614 3.16207C6.78765 3.0867 6.83382 3.01835 6.89197 2.96098C6.95012 2.9036 7.01908 2.85835 7.09487 2.82786C7.17065 2.79736 7.25173 2.78223 7.33342 2.78333C7.49774 2.78332 7.65546 2.84802 7.77244 2.96343C7.88941 3.07885 7.95622 3.23569 7.95842 3.4C7.95626 3.56509 7.88972 3.72281 7.77297 3.83955C7.65622 3.9563 7.4985 4.02284 7.33342 4.025C7.24926 4.02837 7.16529 4.01469 7.08655 3.98479C7.00782 3.9549 6.93593 3.90939 6.87522 3.85102C6.81451 3.79264 6.76623 3.7226 6.73326 3.64509C6.7003 3.56759 6.68335 3.48422 6.68342 3.4H6.70842ZM11.3501 15.5583C11.3512 15.6455 11.335 15.732 11.3024 15.8128C11.2698 15.8937 11.2215 15.9672 11.1602 16.0292C11.099 16.0913 11.026 16.1405 10.9456 16.1741C10.8652 16.2077 10.7789 16.225 10.6917 16.225C10.5149 16.225 10.3454 16.1548 10.2203 16.0297C10.0953 15.9047 10.0251 15.7351 10.0251 15.5583C10.0251 15.4712 10.0424 15.3849 10.076 15.3045C10.1096 15.224 10.1588 15.1511 10.2208 15.0898C10.2829 15.0286 10.3564 14.9803 10.4373 14.9477C10.5181 14.9151 10.6046 14.8989 10.6917 14.9C10.862 14.9065 11.0231 14.9787 11.1412 15.1014C11.2593 15.2242 11.3252 15.388 11.3251 15.5583H11.3501Z" fill="#F6F6F6"/>
</svg>
