<svg width="12" height="11" viewBox="0 0 12 11" fill="none" xmlns="http://www.w3.org/2000/svg">
<path d="M8.04997 10.9305H3.94997C3.06232 10.9213 2.21439 10.5612 1.5914 9.92881C0.968399 9.29644 0.620962 8.44323 0.624973 7.55554V3.55554C0.620962 2.66785 0.968399 1.81464 1.5914 1.18228C2.21439 0.549912 3.06232 0.18978 3.94997 0.180542H8.04997C8.93763 0.18978 9.78555 0.549912 10.4086 1.18228C11.0315 1.81464 11.379 2.66785 11.375 3.55554V7.55554C11.379 8.44323 11.0315 9.29644 10.4086 9.92881C9.78555 10.5612 8.93763 10.9213 8.04997 10.9305ZM3.94997 0.960542C3.26741 0.968447 2.61556 1.24549 2.13617 1.73144C1.65678 2.21738 1.38861 2.87293 1.38997 3.55554V7.55554C1.38861 8.23815 1.65678 8.8937 2.13617 9.37965C2.61556 9.86559 3.26741 10.1426 3.94997 10.1505H8.04997C8.73254 10.1426 9.38439 9.86559 9.86378 9.37965C10.3432 8.8937 10.6113 8.23815 10.61 7.55554V3.55554C10.6113 2.87293 10.3432 2.21738 9.86378 1.73144C9.38439 1.24549 8.73254 0.968447 8.04997 0.960542H3.94997ZM3.57497 4.96054C3.62994 4.95257 3.68253 4.93281 3.72913 4.9026C3.77574 4.87239 3.81525 4.83246 3.84497 4.78554L4.68997 3.42054C4.74466 3.33274 4.76272 3.227 4.74028 3.12603C4.71784 3.02506 4.65669 2.93692 4.56997 2.88054C4.52755 2.85339 4.4801 2.83505 4.43044 2.82664C4.38078 2.81822 4.32993 2.8199 4.28093 2.83157C4.23193 2.84323 4.18579 2.86465 4.14525 2.89454C4.10471 2.92443 4.0706 2.96218 4.04497 3.00554L3.43497 4.00554L3.08997 3.70054C3.05269 3.66641 3.00889 3.64017 2.96121 3.6234C2.91353 3.60663 2.86295 3.59967 2.81251 3.60293C2.76207 3.6062 2.71282 3.61964 2.6677 3.64242C2.62258 3.66521 2.58254 3.69689 2.54997 3.73554C2.48418 3.81422 2.45113 3.91517 2.45764 4.01753C2.46416 4.11989 2.50974 4.21583 2.58497 4.28554L3.26997 4.89054C3.3395 4.95069 3.42805 4.98433 3.51997 4.98554L3.57497 4.96054ZM9.35997 4.18554C9.36026 4.0871 9.32332 3.99219 9.25655 3.91986C9.18978 3.84752 9.09812 3.80311 8.99997 3.79554H5.99997C5.91405 3.81538 5.83739 3.86376 5.7825 3.93277C5.72761 4.00178 5.69772 4.08736 5.69772 4.17554C5.69772 4.26372 5.72761 4.3493 5.7825 4.41832C5.83739 4.48733 5.91405 4.5357 5.99997 4.55554H8.99997C9.09476 4.54834 9.18366 4.50677 9.24995 4.43863C9.31625 4.3705 9.35537 4.28049 9.35997 4.18554ZM3.55997 7.68554C3.61494 7.67757 3.66753 7.65781 3.71413 7.6276C3.76074 7.59739 3.80025 7.55746 3.82997 7.51054L4.67497 6.15554C4.7294 6.06852 4.74732 5.96355 4.72486 5.8634C4.70239 5.76324 4.64135 5.67598 4.55497 5.62054C4.47203 5.57307 4.3741 5.55905 4.28117 5.58135C4.18824 5.60365 4.10733 5.66059 4.05497 5.74054L3.44497 6.74054L3.09997 6.43554C3.06237 6.40171 3.01831 6.37583 2.97044 6.35946C2.92257 6.3431 2.87189 6.33659 2.82144 6.34033C2.77099 6.34407 2.72182 6.35797 2.67688 6.38121C2.63195 6.40445 2.59218 6.43653 2.55997 6.47554C2.49418 6.55422 2.46113 6.65517 2.46764 6.75753C2.47416 6.85989 2.51974 6.95583 2.59497 7.02554L3.27997 7.62554C3.34829 7.6877 3.43762 7.72165 3.52997 7.72054L3.55997 7.68554ZM9.36997 6.91054C9.36267 6.81626 9.32091 6.72796 9.25267 6.66248C9.18443 6.59701 9.09448 6.55894 8.99997 6.55554H5.99997C5.89654 6.55554 5.79734 6.59663 5.7242 6.66977C5.65106 6.74291 5.60997 6.84211 5.60997 6.94554C5.60997 7.04898 5.65106 7.14817 5.7242 7.22131C5.79734 7.29445 5.89654 7.33554 5.99997 7.33554H8.99997C9.05143 7.33365 9.10199 7.32145 9.14865 7.29967C9.19531 7.27789 9.23713 7.24697 9.27162 7.20874C9.30612 7.17051 9.3326 7.12575 9.3495 7.07711C9.36639 7.02846 9.37335 6.97692 9.36997 6.92554V6.91054Z" fill="#5E6278"/>
</svg>
