<svg width="11" height="18" viewBox="0 0 11 18" fill="none" xmlns="http://www.w3.org/2000/svg">
<path d="M1.83748 17.5278C1.6721 17.5271 1.5085 17.4936 1.35615 17.4292C1.20381 17.3648 1.06575 17.2709 0.949984 17.1528C0.71717 16.9186 0.586492 16.6018 0.586492 16.2715C0.586492 15.9413 0.71717 15.6245 0.949984 15.3903L7.47498 8.77777L0.949984 2.31527C0.833436 2.19708 0.741307 2.05709 0.67886 1.9033C0.616413 1.74951 0.584869 1.58492 0.586029 1.41893C0.58719 1.25295 0.621033 1.08882 0.685625 0.935912C0.750217 0.783007 0.844293 0.644321 0.962483 0.527772C1.08067 0.411224 1.22066 0.319097 1.37445 0.256649C1.52825 0.194202 1.69284 0.162658 1.85882 0.163819C2.02481 0.164979 2.18894 0.198822 2.34184 0.263414C2.49475 0.328006 2.63343 0.422082 2.74998 0.540272L10.15 7.95277C10.3828 8.18698 10.5135 8.50379 10.5135 8.83402C10.5135 9.16426 10.3828 9.48107 10.15 9.71527L2.74998 17.1153C2.63453 17.2432 2.49388 17.3459 2.33685 17.4169C2.17981 17.4879 2.0098 17.5256 1.83748 17.5278Z" fill="#9498AB"/>
</svg>
