<svg width="12" height="14" viewBox="0 0 12 14" fill="none" xmlns="http://www.w3.org/2000/svg">
<path d="M11.9267 5.18585C11.9219 4.80263 11.8212 4.42671 11.6337 4.09246C11.4462 3.75821 11.1779 3.4763 10.8533 3.27252L7.16665 0.921684C6.78486 0.682905 6.34212 0.559707 5.89186 0.566953C5.44161 0.574198 5.00307 0.711578 4.62915 0.962517L1.08832 3.36585C0.773355 3.57659 0.515703 3.8623 0.338532 4.19729C0.161361 4.53229 0.0702249 4.90607 0.0733184 5.28502C0.0762415 5.66478 0.171818 6.0381 0.351749 6.37255C0.53168 6.70699 0.790528 6.99247 1.10582 7.20418L1.82332 7.68252V10.3017C1.82126 10.7912 1.96798 11.2697 2.24405 11.6739C2.52011 12.0781 2.91248 12.3889 3.36915 12.565L5.17748 13.2709C5.75443 13.5001 6.39721 13.5001 6.97415 13.2709L8.64832 12.5942C9.09923 12.414 9.48554 12.1024 9.75705 11.6998C10.0286 11.2972 10.1727 10.8223 10.1708 10.3367V7.64168L10.5617 7.37335V8.67418C10.5617 8.79022 10.6077 8.9015 10.6898 8.98354C10.7718 9.06559 10.8831 9.11168 10.9992 9.11168C11.1152 9.11168 11.2265 9.06559 11.3085 8.98354C11.3906 8.9015 11.4367 8.79022 11.4367 8.67418V6.63835C11.7589 6.22318 11.9316 5.71138 11.9267 5.18585ZM9.29582 10.3308C9.29884 10.6407 9.20869 10.9443 9.03707 11.2022C8.86544 11.4602 8.62025 11.6606 8.33332 11.7775L6.65915 12.4542C6.28426 12.6018 5.86737 12.6018 5.49249 12.4542L3.66665 11.7484C3.37332 11.6375 3.12101 11.4394 2.9437 11.1807C2.7664 10.922 2.67261 10.6153 2.67498 10.3017V8.26002L4.70498 9.61335C5.08548 9.87394 5.53589 10.0134 5.99707 10.0134C6.45825 10.0134 6.90865 9.87394 7.28915 9.61335L9.27832 8.25418L9.29582 10.3308ZM6.81665 8.87252C6.58025 9.03378 6.30073 9.12004 6.01457 9.12004C5.7284 9.12004 5.44888 9.03378 5.21248 8.87252L1.58999 6.47502C1.39201 6.34508 1.22926 6.16818 1.11626 5.96007C1.00326 5.75196 0.943519 5.51912 0.942364 5.28231C0.941209 5.04551 0.998676 4.8121 1.10964 4.6029C1.2206 4.3937 1.38162 4.21521 1.57832 4.08335L5.11332 1.68002C5.34759 1.5245 5.62254 1.44155 5.90373 1.44155C6.18493 1.44155 6.45988 1.5245 6.69415 1.68002L10.3867 4.01335C10.5857 4.1373 10.7507 4.30886 10.8668 4.51255C10.9829 4.71623 11.0464 4.94563 11.0517 5.18002C11.0604 5.42207 11.0078 5.66242 10.8987 5.87865C10.7895 6.09489 10.6274 6.27998 10.4275 6.41668L6.81665 8.87252Z" />
</svg>
