<svg width="15" height="17" viewBox="0 0 15 17" fill="none" xmlns="http://www.w3.org/2000/svg">
<path d="M14.9089 4.59708C14.8816 4.50103 14.8436 4.40837 14.7956 4.32083C14.735 4.22779 14.6637 4.14221 14.5831 4.06583C14.5077 3.98823 14.4219 3.92148 14.3281 3.86749L12.2952 2.65624C12.107 2.54675 11.8931 2.48907 11.6754 2.48907C11.4577 2.48907 11.2438 2.54675 11.0556 2.65624L8.98727 3.83208C8.80077 3.94308 8.64494 4.09891 8.53393 4.28541C8.42653 4.47299 8.37034 4.68551 8.37101 4.90166V7.33124L6.70643 8.26624V3.38583C6.70555 3.1613 6.64439 2.94114 6.52935 2.74833C6.51685 2.72601 6.50264 2.7047 6.48685 2.68458C6.44056 2.61642 6.38842 2.55242 6.33102 2.49333C6.25706 2.41703 6.17376 2.35039 6.0831 2.29499L3.9581 1.14041C3.77479 1.03934 3.56888 0.986328 3.35956 0.986328C3.15023 0.986328 2.94432 1.03934 2.76102 1.14041L0.685599 2.30208C0.685599 2.30208 0.643099 2.30208 0.621849 2.34458C0.549067 2.38792 0.480319 2.4377 0.416432 2.49333C0.374835 2.53736 0.33693 2.58474 0.303099 2.63499C0.303099 2.63499 0.239349 2.70583 0.211016 2.74833C0.101472 2.93794 0.042904 3.15269 0.0410156 3.37166V12.0417C0.0422463 12.2598 0.100396 12.4739 0.209717 12.6628C0.319039 12.8516 0.475746 13.0086 0.664349 13.1183L5.4881 15.8596C5.67502 15.9686 5.88798 16.0249 6.10435 16.0225C6.15149 16.0264 6.19887 16.0264 6.24602 16.0225C6.30498 16.0264 6.36413 16.0264 6.4231 16.0225C6.52795 15.9947 6.62818 15.9518 6.7206 15.895L11.5727 13.0617C11.7609 12.9521 11.917 12.795 12.0252 12.606C12.1334 12.417 12.1898 12.2028 12.1889 11.985V9.56249L14.3139 8.31583C14.5002 8.20585 14.6548 8.04955 14.7628 7.86213C14.8708 7.67471 14.9285 7.46254 14.9302 7.24624V4.91583C14.9375 4.8091 14.9303 4.70189 14.9089 4.59708ZM7.6131 10.9721L6.1256 11.8292L4.39727 10.7808L6.43018 9.65458L8.89518 8.23791L10.6093 9.23666L7.6131 10.9721ZM11.1548 8.34416L9.44768 7.35249V5.43291L11.1548 6.43874V8.34416ZM12.2173 8.34416V6.43874L13.8748 5.43999V7.24624C13.875 7.27634 13.8673 7.30597 13.8524 7.33211C13.8374 7.35824 13.8158 7.37994 13.7898 7.39499L12.2173 8.34416ZM11.7498 3.54166L13.3577 4.48374L11.6718 5.52499L9.95768 4.50499L11.5798 3.54166C11.6066 3.52996 11.6355 3.52392 11.6648 3.52392C11.694 3.52392 11.723 3.52996 11.7498 3.54166ZM3.85893 9.85999L3.80935 4.85916L5.64393 3.86041V8.86833L3.85893 9.85999ZM3.34185 2.06833C3.36972 2.06113 3.39897 2.06113 3.42685 2.06833L5.0631 2.96791L4.35477 3.33624L3.26393 3.93124L1.64893 2.97499L3.24977 2.07541C3.2782 2.06073 3.30986 2.05343 3.34185 2.05416V2.06833ZM1.21685 12.1904C1.18894 12.1769 1.16546 12.1558 1.14915 12.1294C1.13284 12.1031 1.12438 12.0726 1.12477 12.0417V3.88874L2.74685 4.85208L2.8106 10.7667C2.8041 10.8137 2.8041 10.8613 2.8106 10.9083C2.81813 10.9496 2.83 10.99 2.84602 11.0287C2.87569 11.0715 2.91149 11.1097 2.95227 11.1421L3.03018 11.22L5.58727 12.75V14.6908L1.21685 12.1904ZM11.0414 12.0983L6.64977 14.6625V12.75L11.1406 10.1858V11.9567C11.1383 11.987 11.1278 12.0161 11.1104 12.041C11.0929 12.066 11.0691 12.0857 11.0414 12.0983Z" fill="#A1A5B7"/>
</svg>
