<svg width="16" height="18" viewBox="0 0 16 18" fill="none" xmlns="http://www.w3.org/2000/svg">
<path d="M7.1601 4.845C7.1816 4.99214 7.14396 5.1418 7.05541 5.26126C6.96687 5.38073 6.83463 5.46027 6.6876 5.4825C6.37991 5.53047 6.09106 5.66119 5.85195 5.86068C5.61283 6.06016 5.43245 6.3209 5.3301 6.615C5.29765 6.73401 5.22748 6.83929 5.13011 6.91502C5.03274 6.99075 4.91343 7.03285 4.7901 7.035C4.74292 7.04283 4.69478 7.04283 4.6476 7.035C4.57421 7.01514 4.50554 6.9808 4.44563 6.934C4.38572 6.8872 4.33577 6.82889 4.29873 6.7625C4.26169 6.69611 4.23831 6.62298 4.22996 6.54741C4.2216 6.47185 4.22845 6.39538 4.2501 6.3225C4.40893 5.82164 4.70314 5.37445 5.10021 5.03032C5.49728 4.6862 5.98175 4.45854 6.5001 4.3725C6.57463 4.35858 6.6512 4.35987 6.72522 4.37629C6.79923 4.39271 6.86917 4.42393 6.93082 4.46806C6.99246 4.5122 7.04455 4.56834 7.08396 4.63312C7.12336 4.69789 7.14926 4.76996 7.1601 4.845ZM15.9126 13.5975C15.8739 14.2131 15.5938 14.7885 15.1331 15.1986C14.6725 15.6087 14.0685 15.8203 13.4526 15.7875H11.2851C11.2836 16.0192 11.2043 16.2437 11.0601 16.425C10.6917 16.8603 10.2319 17.209 9.71335 17.4462C9.1948 17.6835 8.63031 17.8034 8.0601 17.7975C7.47984 17.8124 6.90365 17.6967 6.37404 17.4592C5.84442 17.2216 5.3749 16.8682 5.0001 16.425C4.85785 16.2426 4.77887 16.0188 4.7751 15.7875H2.6151C1.9992 15.8203 1.39524 15.6087 0.934562 15.1986C0.473888 14.7885 0.19376 14.2131 0.155098 13.5975C0.147422 13.0443 0.281184 12.4984 0.543698 12.0114C0.806211 11.5245 1.18877 11.1126 1.6551 10.815C1.82828 10.7178 1.97366 10.5778 2.07739 10.4084C2.18111 10.2391 2.23971 10.0459 2.2476 9.8475V7.155C2.2476 4.755 4.2051 2.655 6.8976 2.205C7.08827 2.16598 7.28112 2.13843 7.4751 2.1225V0.75C7.4751 0.600816 7.53436 0.457742 7.63985 0.352252C7.74534 0.246763 7.88841 0.1875 8.0376 0.1875C8.18678 0.1875 8.32986 0.246763 8.43534 0.352252C8.54083 0.457742 8.6001 0.600816 8.6001 0.75V2.13C8.8401 2.13 9.0501 2.1825 9.1776 2.205H9.2676C11.9151 2.7075 13.8276 4.77 13.8276 7.14V9.8325C13.8355 10.0309 13.8941 10.2241 13.9978 10.3934C14.1015 10.5628 14.2469 10.7028 14.4201 10.8C14.8867 11.1004 15.2688 11.5151 15.53 12.0047C15.7912 12.4944 15.9229 13.0426 15.9126 13.5975ZM10.1226 15.795H5.9376C6.20146 16.0766 6.52118 16.3002 6.87631 16.4513C7.23144 16.6023 7.61419 16.6777 8.0001 16.6725C8.39602 16.6862 8.79029 16.615 9.15639 16.4636C9.5225 16.3123 9.85195 16.0843 10.1226 15.795ZM14.7876 13.5975C14.7937 13.2348 14.7074 12.8765 14.5369 12.5564C14.3663 12.2362 14.117 11.9647 13.8126 11.7675C13.479 11.5682 13.2015 11.2875 13.0061 10.9517C12.8106 10.6159 12.7036 10.236 12.6951 9.8475V7.155C12.6951 5.3025 11.1351 3.69 8.9451 3.315H8.8701C8.58284 3.2627 8.29198 3.23261 8.0001 3.225C7.71054 3.22312 7.42155 3.25076 7.1376 3.3075C4.9551 3.69 3.3876 5.3025 3.3876 7.155V9.8475C3.38339 10.2369 3.27821 10.6185 3.08233 10.955C2.88645 11.2916 2.60659 11.5715 2.2701 11.7675C1.9568 11.9588 1.69826 12.2278 1.51955 12.5484C1.34084 12.8691 1.24802 13.2304 1.2501 13.5975C1.28962 13.9141 1.45137 14.2028 1.70081 14.4018C1.95025 14.6007 2.2676 14.6943 2.5851 14.6625H13.4526C13.7697 14.6924 14.0861 14.5981 14.335 14.3994C14.584 14.2008 14.7463 13.9133 14.7876 13.5975Z" fill="#7E8299"/>
</svg>
