<svg width="10" height="14" viewBox="0 0 10 14" fill="none" xmlns="http://www.w3.org/2000/svg">
<path d="M9.91752 11.4392C9.92442 11.6791 9.88188 11.9179 9.79257 12.1406C9.70326 12.3634 9.56907 12.5654 9.39835 12.7342C9.05098 13.0789 8.5811 13.2719 8.09169 13.2708H1.91419C1.44237 13.2727 0.988272 13.0913 0.647648 12.7648C0.307023 12.4383 0.106496 11.9923 0.0883529 11.5208V11.2583C0.0936236 10.7503 0.205366 10.249 0.416366 9.78679C0.627367 9.3246 0.932937 8.91179 1.31335 8.575L2.89419 7.15166C2.92077 7.13154 2.94233 7.10553 2.95718 7.07567C2.97202 7.04581 2.97975 7.01292 2.97975 6.97958C2.97975 6.94624 2.97202 6.91335 2.95718 6.88349C2.94233 6.85363 2.92077 6.82762 2.89419 6.8075L1.30752 5.38416C1.23328 5.30519 1.19195 5.20088 1.19195 5.0925C1.19195 4.98411 1.23328 4.8798 1.30752 4.80083C1.38955 4.7189 1.50075 4.67288 1.61669 4.67288C1.73262 4.67288 1.84382 4.7189 1.92585 4.80083L3.48335 6.17166C3.59854 6.27241 3.69085 6.39662 3.7541 6.53596C3.81734 6.6753 3.85006 6.82656 3.85006 6.97958C3.85006 7.13261 3.81734 7.28386 3.7541 7.4232C3.69085 7.56255 3.59854 7.68675 3.48335 7.7875L1.90252 9.21083C1.60855 9.46283 1.37208 9.77497 1.20905 10.1262C1.04603 10.4774 0.960254 10.8595 0.95752 11.2467V11.4975C0.966583 11.7436 1.07075 11.9765 1.24809 12.1473C1.42543 12.3181 1.66212 12.4135 1.90835 12.4133H8.09169C8.3444 12.4118 8.58623 12.3103 8.76438 12.1311C8.94253 11.9518 9.04252 11.7094 9.04252 11.4567V11.2583C9.04107 10.8692 8.95593 10.485 8.79288 10.1317C8.62982 9.77844 8.39267 9.46437 8.09752 9.21083L6.51669 7.7875C6.40316 7.68574 6.31236 7.56119 6.2502 7.42199C6.18804 7.28278 6.15591 7.13204 6.15591 6.97958C6.15591 6.82713 6.18804 6.67638 6.2502 6.53718C6.31236 6.39797 6.40316 6.27343 6.51669 6.17166L8.09169 4.75416C8.38522 4.50053 8.62133 4.18725 8.78428 3.8352C8.94722 3.48315 9.03327 3.10041 9.03669 2.7125V2.52583C9.03592 2.40173 9.01072 2.279 8.96252 2.16464C8.91433 2.05028 8.84408 1.94653 8.75578 1.85932C8.66749 1.77211 8.56288 1.70314 8.44794 1.65636C8.33299 1.60958 8.20995 1.5859 8.08585 1.58666H1.90835C1.78425 1.5859 1.66122 1.60958 1.54627 1.65636C1.43132 1.70314 1.32672 1.77211 1.23842 1.85932C1.15013 1.94653 1.07988 2.05028 1.03168 2.16464C0.983483 2.279 0.958283 2.40173 0.95752 2.52583V2.7125C0.95752 2.82853 0.911426 2.93981 0.829379 3.02186C0.747332 3.1039 0.636052 3.15 0.52002 3.15C0.403987 3.15 0.292708 3.1039 0.21066 3.02186C0.128613 2.93981 0.0825195 2.82853 0.0825195 2.7125V2.52583C0.0871412 2.0457 0.281917 1.58697 0.624163 1.2502C0.966408 0.913419 1.42821 0.726054 1.90835 0.729164H8.08585C8.566 0.726054 9.0278 0.913419 9.37004 1.2502C9.71229 1.58697 9.90706 2.0457 9.91169 2.52583V2.7125C9.9066 3.21888 9.79489 3.71851 9.58382 4.17884C9.37275 4.63917 9.06707 5.04986 8.68669 5.38416L7.10585 6.8075C7.07992 6.82862 7.0591 6.85533 7.04496 6.88564C7.03082 6.91594 7.02372 6.94906 7.02419 6.9825C7.02417 7.01503 7.03151 7.04714 7.04565 7.07643C7.05979 7.10572 7.08037 7.13144 7.10585 7.15166L8.68669 8.575C9.06707 8.9093 9.37275 9.31999 9.58382 9.78032C9.79489 10.2406 9.9066 10.7403 9.91169 11.2467L9.91752 11.4392ZM2.60252 10.4067L4.01419 8.9775C4.28724 8.71341 4.65223 8.56577 5.0321 8.56577C5.41197 8.56577 5.77697 8.71341 6.05002 8.9775L7.45585 10.4067C7.55609 10.5059 7.62374 10.6332 7.64979 10.7718C7.67584 10.9104 7.65906 11.0537 7.60169 11.1825C7.54645 11.3085 7.4559 11.4157 7.34098 11.4913C7.22607 11.5669 7.09172 11.6075 6.95419 11.6083H3.11002C2.97037 11.6094 2.83356 11.5689 2.71689 11.4922C2.60023 11.4154 2.50895 11.3058 2.45462 11.1771C2.40029 11.0485 2.38534 10.9066 2.41167 10.7695C2.43799 10.6323 2.50441 10.5061 2.60252 10.4067ZM3.48919 10.7508H6.57502L5.40835 9.58416C5.30116 9.48742 5.16191 9.43388 5.01752 9.43388C4.87313 9.43388 4.73387 9.48742 4.62669 9.58416L3.48919 10.7508Z" fill="#A1A5B7"/>
</svg>
