<svg width="30" height="31" viewBox="0 0 30 31" fill="none" xmlns="http://www.w3.org/2000/svg">
<g id="check-circle">
<g id="arrows">
<path id="check-circle_2" d="M15 3.61514C17.3116 3.61514 19.5712 4.3006 21.4932 5.58484C23.4152 6.86908 24.9132 8.69442 25.7978 10.83C26.6824 12.9656 26.9139 15.3156 26.4629 17.5828C26.012 19.8499 24.8988 21.9324 23.2643 23.567C21.6298 25.2015 19.5473 26.3146 17.2801 26.7656C15.013 27.2165 12.663 26.9851 10.5274 26.1005C8.39178 25.2159 6.56644 23.7179 5.2822 21.7959C3.99797 19.8739 3.31251 17.6142 3.31251 15.3026C3.31251 12.2029 4.54386 9.23016 6.7357 7.03833C8.92753 4.8465 11.9003 3.61514 15 3.61514ZM13.8375 17.1526L10 13.3026C9.77582 13.0926 9.48214 12.9724 9.17501 12.9651C8.94431 12.9674 8.71938 13.0376 8.52829 13.1668C8.33719 13.2961 8.18837 13.4787 8.10039 13.692C8.01242 13.9053 7.98917 14.1398 8.03356 14.3662C8.07795 14.5926 8.18801 14.8009 8.35001 14.9651L13.0125 19.6401C13.2414 19.844 13.5372 19.9566 13.8438 19.9566C14.1503 19.9566 14.4461 19.844 14.675 19.6401L21.675 12.6276C21.837 12.4634 21.9471 12.2551 21.9915 12.0287C22.0358 11.8023 22.0126 11.5678 21.9246 11.3545C21.8366 11.1412 21.6878 10.9586 21.4967 10.8293C21.3056 10.7001 21.0807 10.6299 20.85 10.6276C20.5429 10.6349 20.2492 10.7551 20.025 10.9651L13.85 17.2151M15 1.86514C12.3423 1.86514 9.74432 2.65324 7.53453 4.12977C5.32475 5.6063 3.60243 7.70495 2.58537 10.1603C1.56832 12.6157 1.30221 15.3175 1.8207 17.9242C2.33919 20.5308 3.61899 22.9251 5.49826 24.8044C7.37753 26.6837 9.77186 27.9635 12.3785 28.4819C14.9851 29.0004 17.6869 28.7343 20.1423 27.7173C22.5977 26.7002 24.6964 24.9779 26.1729 22.7681C27.6494 20.5583 28.4375 17.9603 28.4375 15.3026C28.4342 11.7398 27.0174 8.32385 24.4981 5.80455C21.9788 3.28525 18.5628 1.86845 15 1.86514Z" fill="#E8FFF3"/>
</g>
</g>
</svg>
