<svg width="30" height="30" viewBox="0 0 30 30" fill="none" xmlns="http://www.w3.org/2000/svg">
<g id="watch">
<g id="time">
<g id="watch_2">
<path id="Vector" opacity="0.3" d="M24.4125 5.825V5.4125C24.4125 4.64006 24.1056 3.89925 23.5594 3.35305C23.0132 2.80685 22.2724 2.5 21.5 2.5H8.48745C7.71501 2.5 6.9742 2.80685 6.428 3.35305C5.8818 3.89925 5.57495 4.64006 5.57495 5.4125V5.825C5.58942 6.77135 5.8002 7.7044 6.19396 8.56507C6.58772 9.42574 7.15587 10.1953 7.86245 10.825L11.25 13.9125C11.3969 14.0438 11.5144 14.2047 11.5948 14.3845C11.6753 14.5644 11.7169 14.7592 11.7169 14.9563C11.7169 15.1533 11.6753 15.3481 11.5948 15.528C11.5144 15.7078 11.3969 15.8687 11.25 16L7.86245 19.05C7.15587 19.6797 6.58772 20.4493 6.19396 21.3099C5.8002 22.1706 5.58942 23.1036 5.57495 24.05V24.6125C5.58156 25.3828 5.89304 26.1191 6.44122 26.6602C6.98941 27.2014 7.72966 27.5033 8.49995 27.5H21.5125C21.9002 27.5001 22.2841 27.4227 22.6416 27.2725C22.9991 27.1222 23.323 26.9021 23.5943 26.625C23.8656 26.3479 24.0788 26.0194 24.2215 25.6588C24.3641 25.2982 24.4333 24.9127 24.425 24.525V24.0875C24.4105 23.1411 24.1997 22.2081 23.8059 21.3474C23.4122 20.4868 22.844 19.7172 22.1375 19.0875L18.75 16C18.6031 15.8687 18.4855 15.7078 18.4051 15.528C18.3246 15.3481 18.283 15.1533 18.283 14.9563C18.283 14.7592 18.3246 14.5644 18.4051 14.3845C18.4855 14.2047 18.6031 14.0438 18.75 13.9125L22.125 10.8625C22.8362 10.2285 23.407 9.45294 23.801 8.58545C24.1949 7.71795 24.4032 6.7777 24.4125 5.825Z" fill="#009EF6"/>
<path id="Vector_2" d="M10.625 22.9375L13.5875 19.875C13.778 19.6734 14.0076 19.5127 14.2623 19.403C14.517 19.2932 14.7914 19.2365 15.0688 19.2365C15.3461 19.2365 15.6206 19.2932 15.8753 19.403C16.13 19.5127 16.3596 19.6734 16.55 19.875L19.5125 22.9375C19.5935 23.0196 19.6485 23.1238 19.6707 23.237C19.6929 23.3502 19.6813 23.4674 19.6373 23.5741C19.5933 23.6807 19.5189 23.772 19.4234 23.8367C19.3278 23.9013 19.2154 23.9364 19.1 23.9375H11.025C10.9107 23.934 10.7999 23.8972 10.7063 23.8317C10.6126 23.7661 10.5401 23.6746 10.4976 23.5685C10.4551 23.4623 10.4446 23.3461 10.4672 23.234C10.4898 23.1219 10.5447 23.0189 10.625 22.9375Z" fill="#009EF6"/>
</g>
</g>
</g>
</svg>
