<svg width="30" height="31" viewBox="0 0 30 31" fill="none" xmlns="http://www.w3.org/2000/svg">
<g id="lock-3">
<g id="security">
<g id="lock-3_2">
<path id="Vector" opacity="0.3" d="M15 28.454C21.9036 28.454 27.5 22.8575 27.5 15.954C27.5 9.05042 21.9036 3.45398 15 3.45398C8.09644 3.45398 2.5 9.05042 2.5 15.954C2.5 22.8575 8.09644 28.454 15 28.454Z" fill="#7E8299"/>
<path id="Vector_2" d="M18.6625 17.204C18.4139 17.204 18.1754 17.1052 17.9996 16.9294C17.8238 16.7536 17.725 16.5151 17.725 16.2665V12.679C17.7217 12.1065 17.4929 11.5583 17.088 11.1535C16.6832 10.7486 16.135 10.5198 15.5625 10.5165H14.4375C13.865 10.5198 13.3169 10.7486 12.912 11.1535C12.5072 11.5583 12.2783 12.1065 12.275 12.679V16.279C12.275 16.5276 12.1763 16.7661 12.0004 16.9419C11.8246 17.1177 11.5862 17.2165 11.3375 17.2165C11.0889 17.2165 10.8504 17.1177 10.6746 16.9419C10.4988 16.7661 10.4 16.5276 10.4 16.279V12.679C10.4 11.6082 10.8254 10.5812 11.5826 9.82404C12.3398 9.06686 13.3667 8.64148 14.4375 8.64148H15.5625C16.0927 8.64148 16.6178 8.74591 17.1076 8.94882C17.5975 9.15172 18.0426 9.44912 18.4175 9.82404C18.7924 10.199 19.0898 10.644 19.2927 11.1339C19.4956 11.6237 19.6 12.1488 19.6 12.679V16.279C19.5936 16.5244 19.4924 16.7579 19.3176 16.9303C19.1428 17.1028 18.908 17.2008 18.6625 17.204Z" fill="#7E8299"/>
<path id="Vector_3" d="M19.025 14.0165H10.975C10.2887 14.0165 9.63059 14.2891 9.14534 14.7743C8.66009 15.2596 8.38748 15.9177 8.38748 16.604V19.704C8.38251 20.0469 8.44577 20.3874 8.57357 20.7057C8.70138 21.024 8.89118 21.3137 9.13195 21.5579C9.37272 21.8022 9.65965 21.9961 9.97605 22.1285C10.2924 22.2609 10.632 22.329 10.975 22.329H19.025C19.368 22.329 19.7075 22.2609 20.0239 22.1285C20.3403 21.9961 20.6272 21.8022 20.868 21.5579C21.1088 21.3137 21.2986 21.024 21.4264 20.7057C21.5542 20.3874 21.6175 20.0469 21.6125 19.704V16.604C21.6125 15.9177 21.3399 15.2596 20.8546 14.7743C20.3694 14.2891 19.7112 14.0165 19.025 14.0165ZM15 19.504C14.7344 19.5065 14.4741 19.4298 14.2522 19.2838C14.0304 19.1378 13.857 18.929 13.7542 18.6841C13.6515 18.4392 13.6239 18.1693 13.6751 17.9087C13.7263 17.648 13.854 17.4086 14.0418 17.2208C14.2296 17.033 14.469 16.9053 14.7297 16.8541C14.9903 16.8029 15.2602 16.8305 15.5051 16.9332C15.75 17.036 15.9588 17.2094 16.1048 17.4312C16.2508 17.6531 16.3275 17.9134 16.325 18.179C16.325 18.5304 16.1854 18.8674 15.9369 19.1159C15.6884 19.3644 15.3514 19.504 15 19.504Z" fill="#7E8299"/>
</g>
</g>
</g>
</svg>
